<svg xmlns="http://www.w3.org/2000/svg" width="1285" height="244" viewBox="0 0 1285 244">
  <defs>
    <style>
      .cls-1 {
        fill: #fd94e8;
      }

      .cls-1, .cls-2, .cls-3 {
        fill-rule: evenodd;
      }

      .cls-2 {
        fill: #56c2fa;
      }

      .cls-3 {
        fill: #fff;
      }
    </style>
  </defs>
  <path id="Ezekiel_Customs_" data-name="Ezekiel Customs&gt;" class="cls-1" d="M56.059,15.675a31.3,31.3,0,0,0-.377,3.672q-0.1,1.977,0,3.954a16.108,16.108,0,0,0,.282,2.73,39.164,39.164,0,0,0,3.389,12.24,46.7,46.7,0,0,0,6.591,10.357,33.594,33.594,0,0,0-4.708,15.817,26.326,26.326,0,0,0,3.954,15.441,111.712,111.712,0,0,0-21.184,8.85,79.093,79.093,0,0,0-18.454,13.652A61.345,61.345,0,0,0,12.937,120.56a45.984,45.984,0,0,0-3.86,22.22q0.75,13.936,7.815,22.878A37.327,37.327,0,0,0,34.5,178.181a47.692,47.692,0,0,0,23.255,1.506,65.222,65.222,0,0,0,24.95-9.98,91.991,91.991,0,0,0,9.886-7.532,58.3,58.3,0,0,0,8.851-9.6,36.773,36.773,0,0,0,5.649-11.3,24.51,24.51,0,0,0,.282-12.616,17.617,17.617,0,0,0-5.461-9.415,18.256,18.256,0,0,0-9.038-4.237,21.741,21.741,0,0,0-10.357.847,22.7,22.7,0,0,0-9.227,5.649,25.665,25.665,0,0,0-6.967,12.711,23.547,23.547,0,0,0,1.13,14.405q1.695-2.445,3.954-5.649a50.844,50.844,0,0,1,4.99-6.026,26.167,26.167,0,0,1,5.649-4.519,10.715,10.715,0,0,1,6.12-1.506,5.024,5.024,0,0,1,4.8,3.671,14.569,14.569,0,0,1,0,8.38,32.648,32.648,0,0,1-5.178,10.545,38.96,38.96,0,0,1-10.922,10.168,40.884,40.884,0,0,1-14.876,5.932A22.6,22.6,0,0,1,48.9,168.3a19.058,19.058,0,0,1-9.133-8.945q-3.39-6.4-3.2-16.57A57.709,57.709,0,0,1,42.5,119.242a55.97,55.97,0,0,1,14.97-19.207A69.558,69.558,0,0,1,76.113,89.678a27.048,27.048,0,0,0,9.133,2.542,33.592,33.592,0,0,0,9.7-.471q3.01-.565,7.344-1.789A10.959,10.959,0,0,0,108.5,86.1a6.238,6.238,0,0,0,1.224-4.519,6.134,6.134,0,0,0-2.354-4.143,7.249,7.249,0,0,0-4.048-1.789,38.744,38.744,0,0,0-4.614-.282H92.872a6.867,6.867,0,0,1-2.448-6.214c0-.753.029-1.506,0.094-2.26s0.156-1.506.282-2.26a63.327,63.327,0,0,0,18.078,3.013,49.35,49.35,0,0,0,17.7-2.825,51.3,51.3,0,0,0,9.6-4.519,28.27,28.27,0,0,0,7.908-6.967,17.589,17.589,0,0,0,3.861-11.675q-0.283-6.214-5.744-10.545a26.352,26.352,0,0,0-8.473-4.519,38.977,38.977,0,0,0-9.7-1.789A67.925,67.925,0,0,0,113.962,25q-5.085.472-9.6,1.224a91.658,91.658,0,0,0-14.5,3.86,52.645,52.645,0,0,0-13.181,6.873A68.654,68.654,0,0,1,65.85,26.408a79.675,79.675,0,0,1-8.568-12.8A2.435,2.435,0,0,0,56.059,15.675Zm85.4,23.82q1.879,3.487-.753,7.438a13.345,13.345,0,0,1-7.344,5.178,36.995,36.995,0,0,1-9.039,1.6,46.808,46.808,0,0,1-12.428-.942,82.734,82.734,0,0,1-12.428-3.578A59.856,59.856,0,0,1,106.9,42.6a51,51,0,0,1,9.039-5.461,37.762,37.762,0,0,1,9.792-3.107,20.261,20.261,0,0,1,9.7.659A9.966,9.966,0,0,1,141.454,39.5Zm49.992,55.738q2.917-1.222,5.932-2.542,0.75-9.414-.942-12.616a5.978,5.978,0,0,0-5.272-3.389q-2.074,0-6.591.188t-10.262.282q-5.747.1-11.957,0.282t-11.675.188q-5.465,0-9.51-.094a17.227,17.227,0,0,1-5.366-.659,22.973,22.973,0,0,0-1.13,10.545q0.75,4.519,6.591,7.72a13.578,13.578,0,0,0,6.119,1.695,56.149,56.149,0,0,0,7.25-.094q3.765-.282,7.626-0.753a60.441,60.441,0,0,1,7.25-.471q-2.824,1.884-4.9,3.578t-4.707,3.955q-4.335,3.768-9.227,8.191T140.6,120.183q-5.182,4.519-10.169,8.756t-9.509,7.815q-5.27,4.145-10.828,8a67.778,67.778,0,0,1-11.58,6.5,4.316,4.316,0,0,0-2.354,2.542q-0.847,1.977.094,6.12t2.448,5.743a6.525,6.525,0,0,0,4.519,1.789,22.444,22.444,0,0,0,4.99-.188q2.543-.379,4.99-0.753,9.039-.941,18.925-1.507t19.3-.659q9.414-.092,17.606.283a120.037,120.037,0,0,1,13.841,1.318,25.544,25.544,0,0,0-.471-11.769q-1.6-5.552-8.568-9.321a26.241,26.241,0,0,0-10.545-2.919,72.438,72.438,0,0,0-12.71.189q-6.687.662-13.37,1.977t-12.522,2.259a84.429,84.429,0,0,0,9.792-6.967q5.083-4.14,10.168-8.662t9.886-8.944q4.8-4.422,9.133-8,5.084-4.329,10.545-8.38A108.743,108.743,0,0,1,185.7,97.963Q188.528,96.458,191.446,95.233Zm53.572,27.775a56.023,56.023,0,0,0,15.158-9.039,33.763,33.763,0,0,0,10.263-14.311,24.365,24.365,0,0,0,1.506-7.155,15.811,15.811,0,0,0-1.035-6.685,14.32,14.32,0,0,0-3.861-5.461,14.9,14.9,0,0,0-6.59-3.3,35.552,35.552,0,0,0-17.042,0,63.142,63.142,0,0,0-16.1,5.837,54.928,54.928,0,0,0-12.993,9.886A76.511,76.511,0,0,0,196.53,121.6a53.079,53.079,0,0,0-2.919,15.911,33.609,33.609,0,0,0,14.5,29q9.414,6.024,22.6,2.259T257.446,153.7A128.987,128.987,0,0,0,272.981,137.7a101.4,101.4,0,0,0,11.392-16.947q-0.379-3.575-2.165-3.672a9.844,9.844,0,0,0-3.86.659,106.886,106.886,0,0,1-10.64,15.724,67.623,67.623,0,0,1-14.216,13.275q-9.793,6.215-17.7,7.909t-12.9-.942q-4.99-2.634-6.4-9.415t1.977-17.324a30.785,30.785,0,0,0,4.237.471,31.173,31.173,0,0,0,4.237-.094,55.848,55.848,0,0,0,18.077-4.331h0Zm1.506-34.271a24.163,24.163,0,0,1,4.708-2.448,7.848,7.848,0,0,1,4.331-.565q1.88,0.38,1.883,3.39a15.014,15.014,0,0,1-2.825,9.98A47.705,47.705,0,0,1,247.654,107a46.2,46.2,0,0,1-9.6,7.061,77.459,77.459,0,0,1-10.922,4.99q-3.579,1.32-6.4,2.072a92.925,92.925,0,0,1,9.7-16.194,85.793,85.793,0,0,1,12.711-13.746Q244.265,90.244,246.524,88.737ZM367.7,131.764a111.015,111.015,0,0,1-10.451,12.9,42.634,42.634,0,0,1-4.519,4.236,39.2,39.2,0,0,1-5.649,3.861,21.574,21.574,0,0,1-6.12,2.353,8.508,8.508,0,0,1-5.744-.659q-2.259-1.13-3.671-5.084a48.277,48.277,0,0,1-2.166-8.662,78.131,78.131,0,0,1-.941-9.038,26.655,26.655,0,0,1,.188-6.026,49.872,49.872,0,0,0,5.461-1.412q2.634-.847,5.272-1.789a63.741,63.741,0,0,0,9.415-5.178,52.488,52.488,0,0,0,8.662-7.156,50.874,50.874,0,0,0,6.873-8.756,31.451,31.451,0,0,0,4.049-9.792,25.034,25.034,0,0,0-.094-9.886,14.258,14.258,0,0,0-4.8-8.191,11.147,11.147,0,0,0-6.685-3.013,10.729,10.729,0,0,0-7.061,1.695,11.255,11.255,0,0,0-3.672.283q-2.167.472-4.237,1.13a30.453,30.453,0,0,0-3.672,1.412,19.715,19.715,0,0,0-2.165,1.13A83.473,83.473,0,0,0,322.5,85.912q-6.876,6.029-12.146,11.486,3.765-6.214,8.757-13.746t8.756-13.746q2.634-4.519,5.46-8.944a86.493,86.493,0,0,0,5.085-9.133,18.374,18.374,0,0,0,2.353-8.38,13.141,13.141,0,0,0-1.035-5.367,12.693,12.693,0,0,0-3.766-3.954,31.375,31.375,0,0,0-4.331-2.448,23.493,23.493,0,0,0-5.084-1.318q-3.015,5.464-5.461,10.357-2.26,4.334-4.425,8.474t-3.484,6.214l-11.3,19.207-13.37,23.35q-5.463,9.6-10.356,19.3t-9.227,19.866q-1.131,2.448-2.072,5.178t-1.6,5.272q-0.659,2.543-1.036,4.614a9.031,9.031,0,0,0-.188,3.013,11.742,11.742,0,0,0,4.142,7.908,12.8,12.8,0,0,0,8.1,3.578q1.13-2.07,3.107-5.837t3.954-7.627q1.977-3.857,3.578-7.061t2.165-4.143a230.364,230.364,0,0,1,17.889-26.739q4.329-5.834,9.039-11.3t9.98-10.545q2.259-2.07,5.272-4.614a65.684,65.684,0,0,1,6.308-4.707q3.293-2.163,6.5-3.86a18.487,18.487,0,0,1,5.649-2.071,14.2,14.2,0,0,1-.753,8.474,34.178,34.178,0,0,1-4.614,8.191,51.872,51.872,0,0,1-6.308,6.968,57.558,57.558,0,0,1-5.837,4.8,62.863,62.863,0,0,1-10.169,5.461,75.835,75.835,0,0,1-12.051,4.143,8.754,8.754,0,0,0-.565,2.354q-0.379,2.166-.753,4.8t-0.754,5.179a28.284,28.284,0,0,0-.376,3.483,79.114,79.114,0,0,0-.283,8.662,42.024,42.024,0,0,0,1.036,8.474,36.631,36.631,0,0,0,2.825,8,23.462,23.462,0,0,0,5.084,6.873,19.374,19.374,0,0,0,11.486,5.743,24.309,24.309,0,0,0,12.805-1.789,48.084,48.084,0,0,0,13.464-8.85,112.48,112.48,0,0,0,11.015-11.675,173.147,173.147,0,0,0,17.324-26.739q-1.13-4.14-6.025-3.013A149.532,149.532,0,0,1,367.7,131.764Zm49.427-55.832a20.728,20.728,0,0,0-5.931-1.036,18.581,18.581,0,0,0-5.932.753A13.789,13.789,0,0,0,400.553,78a46.007,46.007,0,0,0-9.321,10.545q-4.052,6.214-7.438,12.24a119.289,119.289,0,0,0-9.416,21.372,81.673,81.673,0,0,0-4.142,23.068,32.322,32.322,0,0,0,1.977,12.145,14.438,14.438,0,0,0,8.568,8.568q6.024,2.634,14.217-.847t18.359-14.217a107.1,107.1,0,0,0,12.052-14.406,170.387,170.387,0,0,0,9.791-15.723q-0.943-5.459-6.025-3.013a86.531,86.531,0,0,1-9.039,13.746,103.312,103.312,0,0,1-11.3,12.052q-6.215,5.463-10.168,7.25t-6.026.659q-2.074-1.131-2.166-4.8a34.094,34.094,0,0,1,1.413-9.321q1.879-6.024,4.331-11.863t5.084-11.675q1.315-3.011,3.86-7.721t5.367-9.791q2.824-5.084,5.837-9.792a67.779,67.779,0,0,1,5.273-7.344A9.1,9.1,0,0,0,417.123,75.932ZM429.175,61.9a13.159,13.159,0,0,0,6.967-3.484,14.279,14.279,0,0,0,3.672-6.214,19.338,19.338,0,0,0,.659-7.344,17.151,17.151,0,0,0-1.789-4.708q-1.6-3.2-7.25-5.084a23.62,23.62,0,0,0-4.99-1.318,17.96,17.96,0,0,0-5.178,0,8.418,8.418,0,0,0-6.5,5.084,37.03,37.03,0,0,0-2.543,8.662,10.508,10.508,0,0,0,2.072,8.944,15.052,15.052,0,0,0,7.155,4.99A16.845,16.845,0,0,0,429.175,61.9Zm45.567,61.1a56.044,56.044,0,0,0,15.159-9.039,33.77,33.77,0,0,0,10.262-14.311A24.4,24.4,0,0,0,501.67,92.5a15.827,15.827,0,0,0-1.036-6.685,14.328,14.328,0,0,0-3.86-5.461,14.912,14.912,0,0,0-6.591-3.3,35.548,35.548,0,0,0-17.041,0,63.128,63.128,0,0,0-16.1,5.837,54.888,54.888,0,0,0-12.993,9.886A76.53,76.53,0,0,0,426.254,121.6a53.078,53.078,0,0,0-2.918,15.911,33.6,33.6,0,0,0,14.5,29q9.414,6.024,22.6,2.259T487.17,153.7A128.916,128.916,0,0,0,502.705,137.7,101.4,101.4,0,0,0,514.1,120.748q-0.379-3.575-2.166-3.672a9.85,9.85,0,0,0-3.86.659,106.876,106.876,0,0,1-10.639,15.724,67.628,67.628,0,0,1-14.217,13.275q-9.793,6.215-17.7,7.909t-12.9-.942q-4.992-2.634-6.4-9.415t1.978-17.324a30.787,30.787,0,0,0,4.236.471,31.173,31.173,0,0,0,4.237-.094,55.836,55.836,0,0,0,18.077-4.331h0Zm1.507-34.271a24.127,24.127,0,0,1,4.707-2.448,7.848,7.848,0,0,1,4.331-.565q1.881,0.38,1.883,3.39a15.013,15.013,0,0,1-2.824,9.98A47.751,47.751,0,0,1,477.379,107a46.228,46.228,0,0,1-9.6,7.061,77.448,77.448,0,0,1-10.921,4.99q-3.58,1.32-6.4,2.072a92.869,92.869,0,0,1,9.7-16.194,85.833,85.833,0,0,1,12.71-13.746Q473.99,90.244,476.249,88.737Zm97.257-54.89a39.757,39.757,0,0,0-6.685,3.484,53.471,53.471,0,0,0-8.756,6.12q-4.052,3.487-7.815,7.438a143.217,143.217,0,0,0-16.665,21q-7.44,11.4-14.216,22.879-3.015,5.084-6.026,10.734a113.2,113.2,0,0,0-5.367,11.58,91.483,91.483,0,0,0-3.86,12.146,60.571,60.571,0,0,0-1.695,12.428q-0.375,9.982,3.107,16.288a20.782,20.782,0,0,0,9.133,9.039,22.209,22.209,0,0,0,12.805,1.788,35.491,35.491,0,0,0,14.311-5.46,76.6,76.6,0,0,0,11.58-9.039,114.929,114.929,0,0,0,9.98-10.733,127.506,127.506,0,0,0,8.38-11.487q3.765-5.833,6.59-11.3-0.564-2.825-2.071-3.389a5.678,5.678,0,0,0-3.954.376,80.366,80.366,0,0,1-6.873,10.922,104.345,104.345,0,0,1-8.474,10.074,106.831,106.831,0,0,1-8.85,8.285,53.584,53.584,0,0,1-8.191,5.744q-6.78,3.768-10.451,2.824a6.852,6.852,0,0,1-4.99-4.331,17.43,17.43,0,0,1-.848-8.1,49.365,49.365,0,0,1,1.6-8.662q0.94-2.634,1.789-5.084t1.789-5.084a4.17,4.17,0,0,0,1.318-1.036,5.714,5.714,0,0,1,1.13-1.035q1.88-1.506,3.766-3.013t3.954-3.013q6.779-5.649,13.087-11.957t12.146-12.9q5.083-5.834,9.7-11.863a112.88,112.88,0,0,0,8.38-12.616,130.237,130.237,0,0,0,6.5-11.863,34.012,34.012,0,0,0,3.484-12.993,18.71,18.71,0,0,0-.094-4.143,6.883,6.883,0,0,0-1.6-3.766,6.338,6.338,0,0,0-3.013-1.789,3.491,3.491,0,0,0-3.577.659,10.144,10.144,0,0,0-3.2-.565A19.106,19.106,0,0,0,573.506,33.846ZM543.1,96.08q5.833-9.979,12.145-19.489T568.7,58.043q3.2-3.575,6.685-6.779t6.873-6.4a59.616,59.616,0,0,1-4.237,10.263,100.807,100.807,0,0,1-5.743,9.509q-4.335,6.594-9.039,12.993t-9.792,12.428q-3.954,4.519-8.1,8.85t-8.473,8.285ZM652.026,27.538a34.658,34.658,0,0,0-1.977,6.12,39.223,39.223,0,0,0-.942,6.5q-0.19,3.2-.188,5.084A45.217,45.217,0,0,0,653.25,63.41,51.219,51.219,0,0,0,663.8,78a93.286,93.286,0,0,0-6.591,7.72,118.077,118.077,0,0,0-14.5,23.161,64.238,64.238,0,0,0-6.4,26.174,41.733,41.733,0,0,0,1.413,13.37,40.444,40.444,0,0,0,5.366,11.957,32.56,32.56,0,0,0,9.039,9.039,29.289,29.289,0,0,0,12.8,4.613,40.011,40.011,0,0,0,12.522-.094,67.506,67.506,0,0,0,24.1-8.945,73.023,73.023,0,0,0,10.075-7.343,58.1,58.1,0,0,0,7.814-8.286,54.943,54.943,0,0,0,6.214-9.98,37.953,37.953,0,0,0,3.39-11.016,27.959,27.959,0,0,0-.659-11.392,18.015,18.015,0,0,0-5.649-9.038,15.583,15.583,0,0,0-9.981-3.767,21.519,21.519,0,0,0-11.3,2.448,19.152,19.152,0,0,0-7.249,6.873,18.8,18.8,0,0,0-2.637,9.51,18.411,18.411,0,0,0,2.731,9.98,27.625,27.625,0,0,1,2.542-5.555,30.986,30.986,0,0,1,4.143-5.649,14.929,14.929,0,0,1,5.366-3.766,7.064,7.064,0,0,1,6.214.471q3.39,1.693,3.955,6.308a22.779,22.779,0,0,1-1.413,10.262,43.562,43.562,0,0,1-6.214,11.393A35.47,35.47,0,0,1,686.768,160.2a29.221,29.221,0,0,1-12.146-.094,21.528,21.528,0,0,1-10.074-5.367q-4.333-4.047-5.084-11.392a41.739,41.739,0,0,1,.47-12.805,75.451,75.451,0,0,1,3.578-12.616,87.413,87.413,0,0,1,5.649-12.052q3.293-5.834,6.685-11.11,0.94-1.5,1.883-2.825t1.883-2.825A67.684,67.684,0,0,0,700.043,95.7a65.439,65.439,0,0,0,21,0,74.121,74.121,0,0,0,11.3-2.825,63.027,63.027,0,0,0,10.733-4.708,49.843,49.843,0,0,0,9.416-6.779,39.335,39.335,0,0,0,7.343-9.039A32.75,32.75,0,0,0,764.16,60.02a21.478,21.478,0,0,0-1.412-11.2,18.778,18.778,0,0,0-7.155-8.379,24.614,24.614,0,0,0-12.523-3.672,60.669,60.669,0,0,0-23.632,3.672,130.657,130.657,0,0,0-21.749,10.074q-5.463,3.2-10.545,6.779t-9.98,7.721a52.8,52.8,0,0,1-15.347-18.454A71.225,71.225,0,0,1,655.133,23.4,9.478,9.478,0,0,0,652.026,27.538ZM717.932,52.3q3.292-1.787,7.25-3.484a70.615,70.615,0,0,1,8.191-2.919,28.9,28.9,0,0,1,8-1.224,16.645,16.645,0,0,1,8.473,1.883,8.718,8.718,0,0,1,4.143,4.8,10.832,10.832,0,0,1-.188,6.591,17.3,17.3,0,0,1-4.52,7.061,34.044,34.044,0,0,1-6.59,5.084,53.116,53.116,0,0,1-7.815,3.86,48.185,48.185,0,0,1-8.285,2.448,54.55,54.55,0,0,1-7.815,1.036,62.792,62.792,0,0,1-13.275-.659,68.023,68.023,0,0,1-12.9-3.3,126.09,126.09,0,0,1,20.337-18.077A38.4,38.4,0,0,1,717.932,52.3Zm111.1,30.976q-2.168-2.825-10.828-5.461-3.2-.94-4.99.471a16.393,16.393,0,0,0-3.483,4.049q-6.594,10.733-12.334,21.184a173.23,173.23,0,0,1-12.9,20.055q-3.2,4.143-6.308,8.1t-6.685,7.72a38.721,38.721,0,0,1-9.038,7.532q-4.335,2.45-6.214.942t-0.377-7.626q1.5-6.117,8.662-18.172,2.825-4.7,6.026-9.886t6.59-10.168q3.39-4.987,6.591-9.509t6.026-7.909a17.331,17.331,0,0,0-2.637-2.448,20.081,20.081,0,0,0-3.954-2.354A14.661,14.661,0,0,0,778,78.568a16.621,16.621,0,0,0-6.308.941,14,14,0,0,0-4.708,2.919q-2.449,2.167-4.8,4.708a56.7,56.7,0,0,0-4.331,5.273q-1.977,2.732-3.3,4.613A131.3,131.3,0,0,0,744.2,114.44a116,116,0,0,0-7.344,18.736,68.031,68.031,0,0,0-1.883,8.286,32.506,32.506,0,0,0-.282,8.85,23.712,23.712,0,0,0,2.354,8.1,15.049,15.049,0,0,0,6.025,6.214,12.131,12.131,0,0,0,9.886,1.035,31.909,31.909,0,0,0,10.451-5.837,68.544,68.544,0,0,0,10.169-10.262q4.893-6.025,9.226-12.052a38.861,38.861,0,0,0-1.694,12.522,23.368,23.368,0,0,0,3.954,12.146q3.39,5.463,8.191,6.873a18.852,18.852,0,0,0,9.886.188A33.24,33.24,0,0,0,813.023,165a41.668,41.668,0,0,0,8.191-6.59,113.825,113.825,0,0,0,13.935-17.324q6.024-9.224,12.051-20.337-0.38-3.2-1.883-3.672a6.3,6.3,0,0,0-4.143.659q-2.639,4.9-6.214,10.451t-7.626,10.828a97.026,97.026,0,0,1-8.285,9.509,34.634,34.634,0,0,1-8.191,6.308q-4.71,2.45-7.156-1.318t0.942-13.746a107.888,107.888,0,0,1,5.555-12.9q3.291-6.5,6.684-12.8t6.685-12.428q3.293-6.116,5.932-11.769Q831.194,86.1,829.029,83.276Zm68.54-22.6a22.253,22.253,0,0,0-6.873,1.036,24.894,24.894,0,0,0-5.837,2.73,15.155,15.155,0,0,0-4.143,3.766,29.65,29.65,0,0,0-2.824,4.519q-3.39,4.519-7.25,9.792t-8,10.733l-8.285,10.921q-4.145,5.464-7.909,10.545a28.524,28.524,0,0,0-21.561,9.416,32.437,32.437,0,0,0-4.9,7.061,28.71,28.71,0,0,0-2.73,8.1,24.657,24.657,0,0,0,0,8.568q1.695,10.168,8.38,14.593a28.928,28.928,0,0,0,15.346,4.708,49.132,49.132,0,0,0,17.512-2.73,45.283,45.283,0,0,0,14.688-7.909,54.5,54.5,0,0,0,11.11-12.617,41.294,41.294,0,0,0,8.85-.564,30.522,30.522,0,0,0,8.474-2.825,26.544,26.544,0,0,0,10.639-8.568,117.127,117.127,0,0,0,7.25-11.2q-0.945-5.27-6.026-3.013a27.961,27.961,0,0,1-3.86,5.744,25.644,25.644,0,0,1-5.367,4.707,22.074,22.074,0,0,1-6.685,2.919,15.64,15.64,0,0,1-7.626,0,99.3,99.3,0,0,0,3.39-15.347q1.13-8,2.071-15.817t1.977-15.064A72.058,72.058,0,0,1,900.488,71.6a36.569,36.569,0,0,1,4.519-9.415A19.948,19.948,0,0,0,897.569,60.679Zm-47.075,93.116a20.186,20.186,0,0,1-9.6,2.448,13.2,13.2,0,0,1-8.1-2.824q-3.481-2.729-4.237-8.191a11.183,11.183,0,0,1,.471-5.179,14.216,14.216,0,0,1,2.354-4.425,11.33,11.33,0,0,1,5.084-3.295,15.562,15.562,0,0,1,5.932-.565,23.392,23.392,0,0,1,6.119,1.412q3.011,1.13,5.461,2.26a63.4,63.4,0,0,0,9.227,3.954,29.23,29.23,0,0,1-3.954,6.779A25.122,25.122,0,0,1,850.494,153.795Zm21.09-47.17a102.156,102.156,0,0,1-1.978,14.5l-7.155-3.2q-3.77-1.316-7.344-2.26,4.52-5.835,9.133-11.957T873,92.126Q872.051,99.285,871.584,106.625ZM968.369,42.6A14.792,14.792,0,0,0,964.6,40.06a16.606,16.606,0,0,0-4.519-1.412,4.9,4.9,0,0,0-3.86.753,10.762,10.762,0,0,0-3.107,4.048,46.283,46.283,0,0,1-2.354,4.614L945.3,58.42a19.031,19.031,0,0,1-1.883.282,18.391,18.391,0,0,1-1.883.094,83.312,83.312,0,0,0-10.263,1.883,25.192,25.192,0,0,0-9.509,4.519,13.341,13.341,0,0,0-2.919,3.2,19.127,19.127,0,0,0-2.259,4.519,17.092,17.092,0,0,0-.942,4.99,8.96,8.96,0,0,0,.848,4.425q1.5,0,6.025-.471t10.357-1.224q-5.465,9.6-10.828,19.113a197.325,197.325,0,0,0-9.7,19.678q-1.7,3.954-3.39,8.191a80.162,80.162,0,0,0-2.918,8.756,45.445,45.445,0,0,0-1.507,9.039,27.917,27.917,0,0,0,.848,8.85,16.443,16.443,0,0,0,3.766,7.344,12.876,12.876,0,0,0,6.967,4.143,24.1,24.1,0,0,0,11.581.188,26.772,26.772,0,0,0,10.262-4.519,58.713,58.713,0,0,0,9.792-8.38,132.056,132.056,0,0,0,8.568-10.074,115.48,115.48,0,0,0,7.438-10.922q3.389-5.649,6.4-11.3-0.566-6.024-6.214-3.013a126.671,126.671,0,0,1-7.156,12.334,95.219,95.219,0,0,1-7.908,10.263,60.873,60.873,0,0,1-11.675,10.262q-5.465,3.488-8.662,2.919t-3.295-5.367q-0.1-4.8,4.425-14.782,2.259-4.893,4.331-8.944t2.824-5.555l16.006-32.2,4.331-9.039h0.377q1.129-.185,3.954-0.565t6.214-.753q3.39-.375,6.779-0.942t5.649-.942q2.445-.375,2.919-1.13t-0.094-3.578a12.489,12.489,0,0,0-3.484-6.5,15.258,15.258,0,0,0-6.5-3.86,42.664,42.664,0,0,0-6.779-1.13l2.259-4.519q1.13-2.26,1.883-4.049a6.658,6.658,0,0,0,0-4.425A7.189,7.189,0,0,0,968.369,42.6ZM1016.1,81.958a20.741,20.741,0,0,0-6.68-1.977,28.367,28.367,0,0,0-6.88-.094A31.97,31.97,0,0,0,990.4,83.464a48.9,48.9,0,0,0-10.451,7.344,60.679,60.679,0,0,0-8.474,10.168,65.291,65.291,0,0,0-9.98,25.139,52.507,52.507,0,0,0-.565,13.275,37.069,37.069,0,0,0,2.825,11.11,32.078,32.078,0,0,0,6.026,9.321,25.654,25.654,0,0,0,8.85,6.214,24.69,24.69,0,0,0,11.3,1.789,30.161,30.161,0,0,0,9.7-2.354,40.02,40.02,0,0,0,8.564-4.99,53.958,53.958,0,0,0,7.44-6.873q3.48-3.857,6.5-7.815,12.99-.939,21.94-7.249t14.97-17.8q-0.57-5.459-6.03-3.013-4.335,8.1-10.07,11.863a12.072,12.072,0,0,1-11.77,1.319,75.025,75.025,0,0,0,5.27-16.665,41.064,41.064,0,0,0-.19-17.042,27.4,27.4,0,0,0-4.71-9.6,14.377,14.377,0,0,0-8.85-5.649,11.685,11.685,0,0,0-6.02.377Zm-13.27,48.864a8,8,0,0,0-.1,6.873,10.344,10.344,0,0,0,3.3,4.049,18.328,18.328,0,0,0,4.8,2.542q-5.655,6.594-11.864,8.756t-10.921-.282a10.33,10.33,0,0,1-5.461-6.308,27.255,27.255,0,0,1-1.224-10.169,49.5,49.5,0,0,1,2.26-12.145A72.9,72.9,0,0,1,988.7,111.8a56.389,56.389,0,0,1,7.25-10.734,30.2,30.2,0,0,1,8.846-7.249,25.737,25.737,0,0,1,5.84-2.26,21.5,21.5,0,0,1,6.4-.565,27.783,27.783,0,0,1,4.43,3.86,13.168,13.168,0,0,1,2.73,5.179,37.86,37.86,0,0,1,1.03,10.921,44.962,44.962,0,0,1-1.78,10.545,7.245,7.245,0,0,0-2.26-2.071,7.424,7.424,0,0,0-6.69.188,28.151,28.151,0,0,0-6.87,4.52A20.117,20.117,0,0,0,1002.83,130.822Zm183.4,3.955a44.425,44.425,0,0,1-13.46,11.769q-7.9,4.334-11.21,2.353-3.285-1.977-1.22-7.814a108.206,108.206,0,0,1,6.87-15.912q4.05-7.626,8.01-15.346l8.09-15.253q0.945-1.695,1.89-3.578a15.638,15.638,0,0,0,1.32-3.766q0.375-1.315-2.45-4.143A26.716,26.716,0,0,0,1176.35,78a15.672,15.672,0,0,0-9.42-1.506q-4.71.755-12.05,5.837a122.124,122.124,0,0,0-25.8,23.915l4.52-9.227a48.217,48.217,0,0,1,2.45-4.613,14.345,14.345,0,0,0,1.88-4.613,4.577,4.577,0,0,0-1.22-3.2,20.556,20.556,0,0,0-3.67-3.672,23.676,23.676,0,0,0-4.99-3.013,15.716,15.716,0,0,0-5.18-1.412,11.164,11.164,0,0,0-4.99.753,26.948,26.948,0,0,0-4.43,2.26,46.558,46.558,0,0,0-3.86,2.73,35.364,35.364,0,0,0-2.92,2.542,97.318,97.318,0,0,0-7.72,7.344q-4.515,4.709-9.22,9.886t-9.04,10.168q-4.335,4.992-6.97,8.192,1.695-3.011,4.33-7.344t5.56-8.945q2.91-4.611,5.83-9.227t4.99-8.379q1.89-3.389.76-5.461t-5.46-5.461q-4.335-3.2-7.91-1.977a9.2,9.2,0,0,0-5.27,4.237l-11.49,18.83q-4.14,6.594-8.57,14.311T1048.3,126.3q-3.765,7.626-6.59,14.5a56.205,56.205,0,0,0-3.58,11.393,6.2,6.2,0,0,0,1.41,4.707,19.411,19.411,0,0,0,4.43,4.331,15.485,15.485,0,0,0,5.37,2.542,4.96,4.96,0,0,0,4.42-.659,22.536,22.536,0,0,0,3.01-3.389q1.89-2.445,3.86-5.084t3.68-5.084c1.13-1.63,1.94-2.76,2.44-3.39q3.96-5.459,8.01-10.733t8.38-10.545q6.585-8.285,13.84-16.288t14.97-15.159q-6.78,13.183-12.53,24.856t-10.82,22.973c-0.26.753-.66,1.789-1.23,3.107s-1.13,2.669-1.69,4.049-1.07,2.668-1.51,3.86-0.72,2.042-.85,2.542a5.861,5.861,0,0,0,1.04,4.519,11.334,11.334,0,0,0,3.58,3.107,27.643,27.643,0,0,0,4.61,2.072,19.286,19.286,0,0,0,4.33,1.035,4.46,4.46,0,0,0,3.11-1.694,41.1,41.1,0,0,0,3.86-5.085q2.265-3.388,5.27-8.285t7.35-11.11q4.89-7.153,9.98-13.84t10.73-13.276q4.515-5.27,10.64-11.109T1159.4,91q-3.765,7.534-8,14.594a111.122,111.122,0,0,0-7.44,14.782q-1.89,4.334-3.67,9.321a57.134,57.134,0,0,0-2.64,10.262,37.767,37.767,0,0,0-.28,10.263,16.954,16.954,0,0,0,3.76,8.944,15.042,15.042,0,0,0,8.29,6.12,19.516,19.516,0,0,0,9.51.094,33.418,33.418,0,0,0,9.41-3.86,51.654,51.654,0,0,0,8.2-5.932,104.858,104.858,0,0,0,14.68-16.006,144.126,144.126,0,0,0,11.87-18.83c-0.26-1.883-.95-2.948-2.08-3.2a8.648,8.648,0,0,0-3.95.188A118.609,118.609,0,0,1,1186.23,134.777Zm67.23-74.1a22.321,22.321,0,0,0-6.88,1.036,24.842,24.842,0,0,0-5.83,2.73,15.278,15.278,0,0,0-4.15,3.766,29.382,29.382,0,0,0-2.82,4.519q-3.39,4.519-7.25,9.792t-8,10.733q-4.155,5.464-8.29,10.921t-7.91,10.545a28.552,28.552,0,0,0-21.56,9.416,32.239,32.239,0,0,0-4.89,7.061,28.553,28.553,0,0,0-2.73,8.1,24.657,24.657,0,0,0,0,8.568q1.695,10.168,8.37,14.593a28.956,28.956,0,0,0,15.35,4.708,49.125,49.125,0,0,0,17.51-2.73,45.273,45.273,0,0,0,14.69-7.909,54.435,54.435,0,0,0,11.11-12.617,41.311,41.311,0,0,0,8.85-.564,30.6,30.6,0,0,0,8.48-2.825,26.53,26.53,0,0,0,10.63-8.568,115.6,115.6,0,0,0,7.25-11.2q-0.945-5.27-6.02-3.013a28.042,28.042,0,0,1-3.86,5.744,25.56,25.56,0,0,1-5.37,4.707,22.143,22.143,0,0,1-6.68,2.919,15.656,15.656,0,0,1-7.63,0,98.49,98.49,0,0,0,3.39-15.347q1.125-8,2.07-15.817t1.98-15.064a71.571,71.571,0,0,1,3.11-13.275,36.682,36.682,0,0,1,4.51-9.415A19.931,19.931,0,0,0,1253.46,60.679Zm-47.08,93.116a20.191,20.191,0,0,1-9.6,2.448,13.185,13.185,0,0,1-8.1-2.824q-3.48-2.729-4.24-8.191a11.25,11.25,0,0,1,.47-5.179,14.207,14.207,0,0,1,2.36-4.425,11.3,11.3,0,0,1,5.08-3.295,15.569,15.569,0,0,1,5.93-.565,23.326,23.326,0,0,1,6.12,1.412q3.015,1.13,5.46,2.26a63.715,63.715,0,0,0,9.23,3.954,29.438,29.438,0,0,1-3.95,6.779A25.142,25.142,0,0,1,1206.38,153.795Zm21.09-47.17a100.6,100.6,0,0,1-1.98,14.5l-7.15-3.2q-3.765-1.316-7.35-2.26,4.53-5.835,9.14-11.957t8.75-11.581Q1227.935,99.285,1227.47,106.625ZM1268.9,119.9a2.562,2.562,0,0,0,1.22,1.6,15.35,15.35,0,0,1,5.84,7.909,34.475,34.475,0,0,1,1.79,12.052,63.611,63.611,0,0,1-2.08,14.593,79.9,79.9,0,0,1-5.74,15.535,41.236,41.236,0,0,1-15.16,16.947,68.235,68.235,0,0,1-20.62,8.38,110.135,110.135,0,0,1-22.88,2.73q-11.76.186-21.74,0-17.9-.379-42.18-1.6t-52.64-2.919q-28.335-1.695-59.59-3.578t-63.179-3.483q-31.917-1.6-63.364-2.637T848.508,184.4q-28.62,0-53.29,1.224a391.245,391.245,0,0,0-43.121,4.236,126.293,126.293,0,0,0-17.606,4.426,100.517,100.517,0,0,0-19.113,8.473,85.485,85.485,0,0,0-17.418,13.181,59.658,59.658,0,0,0-12.711,18.172,66.622,66.622,0,0,0-2.542,6.873q-0.657,2.352.283,2.918t3.672-.282q2.731-.848,7.814-2.542,19.587-6.779,49.806-11.392t68.26-7.344q38.038-2.732,82.477-3.86t92.551-.942q48.12,0.186,98.48,1.506,50.385,1.316,100.09,3.2a183.7,183.7,0,0,0,29.18-1.13,89.235,89.235,0,0,0,25.42-6.873,67.989,67.989,0,0,0,20.91-14.5q9.225-9.321,15.62-24.2a97.694,97.694,0,0,0,5.56-16.1,76.219,76.219,0,0,0,2.26-15.346,52.063,52.063,0,0,0-1.13-13.558,26.286,26.286,0,0,0-4.8-10.545c-1.89-2.51-3.83-3.766-5.84-3.766s-3.33.5-3.95,1.506A2.592,2.592,0,0,0,1268.9,119.9Z"/>
  <path id="Ezekiel_Customs_copy_2" data-name="Ezekiel Customs&gt; copy 2" class="cls-2" d="M51.059,8.675a31.3,31.3,0,0,0-.377,3.672q-0.1,1.977,0,3.954a16.108,16.108,0,0,0,.282,2.73,39.164,39.164,0,0,0,3.389,12.24,46.7,46.7,0,0,0,6.591,10.357,33.594,33.594,0,0,0-4.708,15.818,26.326,26.326,0,0,0,3.954,15.441,111.712,111.712,0,0,0-21.184,8.85A79.1,79.1,0,0,0,20.553,95.389,61.353,61.353,0,0,0,7.937,113.56a45.985,45.985,0,0,0-3.86,22.22q0.75,13.936,7.815,22.878A37.327,37.327,0,0,0,29.5,171.181a47.692,47.692,0,0,0,23.255,1.506,65.222,65.222,0,0,0,24.95-9.98,91.991,91.991,0,0,0,9.886-7.532,58.277,58.277,0,0,0,8.85-9.6,36.763,36.763,0,0,0,5.649-11.3,24.51,24.51,0,0,0,.282-12.616,17.622,17.622,0,0,0-5.461-9.415,18.259,18.259,0,0,0-9.039-4.237,21.741,21.741,0,0,0-10.357.847,22.7,22.7,0,0,0-9.227,5.649,25.665,25.665,0,0,0-6.967,12.711,23.547,23.547,0,0,0,1.13,14.4q1.695-2.445,3.954-5.649a50.844,50.844,0,0,1,4.99-6.026,26.167,26.167,0,0,1,5.649-4.519,10.715,10.715,0,0,1,6.12-1.506,5.024,5.024,0,0,1,4.8,3.671,14.569,14.569,0,0,1,0,8.38,32.648,32.648,0,0,1-5.178,10.545,38.96,38.96,0,0,1-10.922,10.168,40.884,40.884,0,0,1-14.876,5.932A22.6,22.6,0,0,1,43.9,161.295a19.058,19.058,0,0,1-9.133-8.945q-3.39-6.4-3.2-16.57A57.709,57.709,0,0,1,37.5,112.242a55.97,55.97,0,0,1,14.97-19.207A69.563,69.563,0,0,1,71.113,82.678a27.048,27.048,0,0,0,9.133,2.542,33.592,33.592,0,0,0,9.7-.471q3.01-.565,7.344-1.789A10.959,10.959,0,0,0,103.5,79.1a6.238,6.238,0,0,0,1.224-4.519,6.134,6.134,0,0,0-2.354-4.143,7.25,7.25,0,0,0-4.048-1.789,38.731,38.731,0,0,0-4.613-.282H87.872a6.867,6.867,0,0,1-2.448-6.214c0-.753.029-1.506,0.094-2.26s0.156-1.506.282-2.26a63.329,63.329,0,0,0,18.078,3.013,49.35,49.35,0,0,0,17.7-2.825,51.3,51.3,0,0,0,9.6-4.519,28.27,28.27,0,0,0,7.908-6.967,17.589,17.589,0,0,0,3.861-11.675q-0.283-6.214-5.744-10.545a26.352,26.352,0,0,0-8.473-4.519,38.977,38.977,0,0,0-9.7-1.789A67.925,67.925,0,0,0,108.962,18q-5.085.472-9.6,1.224a91.653,91.653,0,0,0-14.5,3.86,52.645,52.645,0,0,0-13.181,6.873A68.654,68.654,0,0,1,60.85,19.408,79.675,79.675,0,0,1,52.283,6.6,2.435,2.435,0,0,0,51.059,8.675Zm85.4,23.82q1.879,3.487-.753,7.438a13.345,13.345,0,0,1-7.344,5.178,36.995,36.995,0,0,1-9.039,1.6,46.808,46.808,0,0,1-12.428-.942,82.72,82.72,0,0,1-12.428-3.578A59.813,59.813,0,0,1,101.9,35.6a51,51,0,0,1,9.039-5.461,37.762,37.762,0,0,1,9.792-3.107,20.261,20.261,0,0,1,9.7.659A9.966,9.966,0,0,1,136.454,32.5Zm49.992,55.738q2.917-1.222,5.932-2.542,0.75-9.414-.942-12.616a5.978,5.978,0,0,0-5.272-3.389q-2.074,0-6.591.188t-10.262.282q-5.747.1-11.957,0.282t-11.675.188q-5.465,0-9.51-.094a17.227,17.227,0,0,1-5.366-.659,22.973,22.973,0,0,0-1.13,10.545q0.75,4.519,6.591,7.72a13.578,13.578,0,0,0,6.119,1.695,56.149,56.149,0,0,0,7.25-.094q3.765-.282,7.626-0.753a60.441,60.441,0,0,1,7.25-.471q-2.824,1.884-4.9,3.578t-4.707,3.954q-4.335,3.769-9.227,8.191T135.6,113.183q-5.182,4.519-10.169,8.756t-9.509,7.815q-5.27,4.145-10.828,8a67.781,67.781,0,0,1-11.58,6.5,4.316,4.316,0,0,0-2.354,2.542q-0.847,1.977.094,6.12t2.448,5.743a6.524,6.524,0,0,0,4.519,1.789,22.441,22.441,0,0,0,4.99-.188q2.543-.379,4.99-0.753,9.039-.941,18.925-1.507t19.3-.659q9.414-.092,17.606.283a120.037,120.037,0,0,1,13.841,1.318,25.544,25.544,0,0,0-.471-11.769q-1.6-5.552-8.568-9.321a26.241,26.241,0,0,0-10.545-2.919,72.438,72.438,0,0,0-12.71.189q-6.687.662-13.37,1.977t-12.522,2.259a84.429,84.429,0,0,0,9.792-6.967q5.083-4.14,10.168-8.662t9.886-8.944q4.8-4.422,9.133-8,5.084-4.329,10.545-8.38A108.762,108.762,0,0,1,180.7,90.963Q183.528,89.458,186.446,88.233Zm53.572,27.775a56.023,56.023,0,0,0,15.158-9.039,33.762,33.762,0,0,0,10.263-14.311,24.365,24.365,0,0,0,1.506-7.155,15.811,15.811,0,0,0-1.035-6.685,14.32,14.32,0,0,0-3.861-5.461,14.9,14.9,0,0,0-6.59-3.3,35.552,35.552,0,0,0-17.042,0,63.142,63.142,0,0,0-16.1,5.837,54.928,54.928,0,0,0-12.993,9.886A76.507,76.507,0,0,0,191.53,114.6a53.079,53.079,0,0,0-2.919,15.911,33.609,33.609,0,0,0,14.5,29q9.414,6.024,22.6,2.259T252.446,146.7A128.987,128.987,0,0,0,267.981,130.7a101.4,101.4,0,0,0,11.392-16.947q-0.379-3.575-2.165-3.672a9.844,9.844,0,0,0-3.86.659,106.886,106.886,0,0,1-10.64,15.724,67.623,67.623,0,0,1-14.216,13.275q-9.793,6.215-17.7,7.909t-12.9-.942q-4.99-2.634-6.4-9.415t1.977-17.324a30.785,30.785,0,0,0,4.237.471,31.173,31.173,0,0,0,4.237-.094,55.848,55.848,0,0,0,18.077-4.331h0Zm1.506-34.271a24.163,24.163,0,0,1,4.708-2.448,7.848,7.848,0,0,1,4.331-.565q1.88,0.38,1.883,3.39a15.014,15.014,0,0,1-2.825,9.98A47.685,47.685,0,0,1,242.654,100a46.2,46.2,0,0,1-9.6,7.061,77.459,77.459,0,0,1-10.922,4.99q-3.579,1.32-6.4,2.072a92.938,92.938,0,0,1,9.7-16.194,85.8,85.8,0,0,1,12.711-13.746Q239.265,83.244,241.524,81.737ZM362.7,124.764a111.015,111.015,0,0,1-10.451,12.9,42.634,42.634,0,0,1-4.519,4.236,39.2,39.2,0,0,1-5.649,3.861,21.574,21.574,0,0,1-6.12,2.353,8.508,8.508,0,0,1-5.744-.659q-2.259-1.13-3.671-5.084a48.277,48.277,0,0,1-2.166-8.662,78.131,78.131,0,0,1-.941-9.038,26.655,26.655,0,0,1,.188-6.026,49.872,49.872,0,0,0,5.461-1.412q2.634-.847,5.272-1.789a63.741,63.741,0,0,0,9.415-5.178,52.488,52.488,0,0,0,8.662-7.156,50.859,50.859,0,0,0,6.873-8.756,31.45,31.45,0,0,0,4.049-9.792,25.034,25.034,0,0,0-.094-9.886,14.258,14.258,0,0,0-4.8-8.191,11.147,11.147,0,0,0-6.685-3.013,10.729,10.729,0,0,0-7.061,1.695,11.255,11.255,0,0,0-3.672.283q-2.167.472-4.237,1.13a30.453,30.453,0,0,0-3.672,1.412,19.715,19.715,0,0,0-2.165,1.13A83.473,83.473,0,0,0,317.5,78.912q-6.876,6.029-12.146,11.486,3.765-6.214,8.757-13.746t8.756-13.746q2.634-4.519,5.46-8.944a86.493,86.493,0,0,0,5.085-9.133,18.374,18.374,0,0,0,2.353-8.38,13.141,13.141,0,0,0-1.035-5.367,12.693,12.693,0,0,0-3.766-3.954,31.375,31.375,0,0,0-4.331-2.448,23.493,23.493,0,0,0-5.084-1.318q-3.015,5.464-5.461,10.357-2.26,4.334-4.425,8.474t-3.484,6.214l-11.3,19.207-13.37,23.35q-5.463,9.6-10.356,19.3t-9.227,19.866q-1.131,2.448-2.072,5.178t-1.6,5.272q-0.659,2.543-1.036,4.614a9.031,9.031,0,0,0-.188,3.013,11.742,11.742,0,0,0,4.142,7.908,12.8,12.8,0,0,0,8.1,3.578q1.13-2.07,3.107-5.837t3.954-7.627q1.977-3.857,3.578-7.061t2.165-4.143a230.364,230.364,0,0,1,17.889-26.739q4.329-5.834,9.039-11.3t9.98-10.545q2.259-2.07,5.272-4.614a65.684,65.684,0,0,1,6.308-4.707q3.293-2.163,6.5-3.86a18.487,18.487,0,0,1,5.649-2.071,14.2,14.2,0,0,1-.753,8.474,34.178,34.178,0,0,1-4.614,8.191,51.851,51.851,0,0,1-6.308,6.967,57.647,57.647,0,0,1-5.837,4.8,62.9,62.9,0,0,1-10.169,5.461,75.835,75.835,0,0,1-12.051,4.143,8.754,8.754,0,0,0-.565,2.354q-0.379,2.166-.753,4.8t-0.754,5.179a28.284,28.284,0,0,0-.376,3.483,79.114,79.114,0,0,0-.283,8.662,42.024,42.024,0,0,0,1.036,8.474,36.631,36.631,0,0,0,2.825,8,23.462,23.462,0,0,0,5.084,6.873,19.374,19.374,0,0,0,11.486,5.743,24.309,24.309,0,0,0,12.805-1.789,48.084,48.084,0,0,0,13.464-8.85,112.48,112.48,0,0,0,11.015-11.675,173.147,173.147,0,0,0,17.324-26.739q-1.13-4.14-6.025-3.013A149.532,149.532,0,0,1,362.7,124.764Zm49.427-55.832a20.728,20.728,0,0,0-5.931-1.036,18.581,18.581,0,0,0-5.932.753A13.789,13.789,0,0,0,395.553,71a46.007,46.007,0,0,0-9.321,10.545q-4.052,6.214-7.438,12.24a119.289,119.289,0,0,0-9.416,21.372,81.673,81.673,0,0,0-4.142,23.068,32.322,32.322,0,0,0,1.977,12.145,14.438,14.438,0,0,0,8.568,8.568q6.024,2.634,14.217-.847t18.359-14.217a107.1,107.1,0,0,0,12.052-14.406,170.387,170.387,0,0,0,9.791-15.723q-0.943-5.459-6.025-3.013a86.531,86.531,0,0,1-9.039,13.746,103.312,103.312,0,0,1-11.3,12.052q-6.215,5.463-10.168,7.25t-6.026.659q-2.074-1.131-2.166-4.8a34.094,34.094,0,0,1,1.413-9.321q1.879-6.024,4.331-11.863t5.084-11.675q1.315-3.011,3.86-7.721t5.367-9.792q2.824-5.084,5.837-9.792a67.779,67.779,0,0,1,5.273-7.344A9.1,9.1,0,0,0,412.123,68.932ZM424.175,54.9a13.159,13.159,0,0,0,6.967-3.484,14.279,14.279,0,0,0,3.672-6.214,19.338,19.338,0,0,0,.659-7.344,17.151,17.151,0,0,0-1.789-4.708q-1.6-3.2-7.25-5.084a23.62,23.62,0,0,0-4.99-1.318,17.96,17.96,0,0,0-5.178,0,8.418,8.418,0,0,0-6.5,5.084,37.03,37.03,0,0,0-2.543,8.662,10.508,10.508,0,0,0,2.072,8.944,15.052,15.052,0,0,0,7.155,4.99A16.845,16.845,0,0,0,424.175,54.9Zm45.567,61.1a56.044,56.044,0,0,0,15.159-9.039,33.768,33.768,0,0,0,10.262-14.311A24.4,24.4,0,0,0,496.67,85.5a15.827,15.827,0,0,0-1.036-6.685,14.328,14.328,0,0,0-3.86-5.461,14.912,14.912,0,0,0-6.591-3.3,35.548,35.548,0,0,0-17.041,0,63.128,63.128,0,0,0-16.1,5.837,54.888,54.888,0,0,0-12.993,9.886A76.526,76.526,0,0,0,421.254,114.6a53.078,53.078,0,0,0-2.918,15.911,33.6,33.6,0,0,0,14.5,29q9.414,6.024,22.6,2.259T482.17,146.7A128.916,128.916,0,0,0,497.705,130.7,101.4,101.4,0,0,0,509.1,113.748q-0.379-3.575-2.166-3.672a9.85,9.85,0,0,0-3.86.659,106.876,106.876,0,0,1-10.639,15.724,67.628,67.628,0,0,1-14.217,13.275q-9.793,6.215-17.7,7.909t-12.9-.942q-4.992-2.634-6.4-9.415t1.978-17.324a30.787,30.787,0,0,0,4.236.471,31.173,31.173,0,0,0,4.237-.094,55.836,55.836,0,0,0,18.077-4.331h0Zm1.507-34.271a24.127,24.127,0,0,1,4.707-2.448,7.848,7.848,0,0,1,4.331-.565q1.881,0.38,1.883,3.39a15.013,15.013,0,0,1-2.824,9.98A47.731,47.731,0,0,1,472.379,100a46.228,46.228,0,0,1-9.6,7.061,77.448,77.448,0,0,1-10.921,4.99q-3.58,1.32-6.4,2.072a92.882,92.882,0,0,1,9.7-16.194,85.844,85.844,0,0,1,12.71-13.746Q468.99,83.244,471.249,81.737Zm97.257-54.89a39.757,39.757,0,0,0-6.685,3.484,53.471,53.471,0,0,0-8.756,6.12q-4.052,3.487-7.815,7.438a143.217,143.217,0,0,0-16.665,21q-7.44,11.4-14.216,22.879-3.015,5.084-6.026,10.733a113.243,113.243,0,0,0-5.367,11.58,91.483,91.483,0,0,0-3.86,12.146,60.571,60.571,0,0,0-1.695,12.428q-0.375,9.982,3.107,16.288a20.782,20.782,0,0,0,9.133,9.039,22.209,22.209,0,0,0,12.805,1.788,35.491,35.491,0,0,0,14.311-5.46,76.6,76.6,0,0,0,11.58-9.039,114.929,114.929,0,0,0,9.98-10.733,127.506,127.506,0,0,0,8.38-11.487q3.765-5.834,6.59-11.3-0.564-2.825-2.071-3.389a5.678,5.678,0,0,0-3.954.376,80.366,80.366,0,0,1-6.873,10.922,104.345,104.345,0,0,1-8.474,10.074,106.831,106.831,0,0,1-8.85,8.285,53.584,53.584,0,0,1-8.191,5.744q-6.78,3.768-10.451,2.824a6.852,6.852,0,0,1-4.99-4.331,17.43,17.43,0,0,1-.848-8.1,49.365,49.365,0,0,1,1.6-8.662q0.94-2.634,1.789-5.084t1.789-5.084a4.17,4.17,0,0,0,1.318-1.036,5.714,5.714,0,0,1,1.13-1.035q1.88-1.506,3.766-3.013t3.954-3.013q6.779-5.649,13.087-11.957t12.146-12.9q5.083-5.834,9.7-11.863a112.88,112.88,0,0,0,8.38-12.616,130.237,130.237,0,0,0,6.5-11.863,34.012,34.012,0,0,0,3.484-12.993,18.71,18.71,0,0,0-.094-4.143,6.883,6.883,0,0,0-1.6-3.766,6.338,6.338,0,0,0-3.013-1.789,3.491,3.491,0,0,0-3.577.659,10.144,10.144,0,0,0-3.2-.565A19.106,19.106,0,0,0,568.506,26.846ZM538.1,89.08q5.833-9.979,12.145-19.489T563.7,51.043q3.2-3.575,6.685-6.779t6.873-6.4a59.616,59.616,0,0,1-4.237,10.263,100.807,100.807,0,0,1-5.743,9.509q-4.335,6.594-9.039,12.993t-9.792,12.428q-3.954,4.519-8.1,8.85t-8.473,8.285ZM647.026,20.538a34.658,34.658,0,0,0-1.977,6.12,39.223,39.223,0,0,0-.942,6.5q-0.19,3.2-.188,5.084A45.217,45.217,0,0,0,648.25,56.41,51.219,51.219,0,0,0,658.8,71a93.286,93.286,0,0,0-6.591,7.72,118.08,118.08,0,0,0-14.5,23.161,64.238,64.238,0,0,0-6.4,26.174,41.733,41.733,0,0,0,1.413,13.37,40.444,40.444,0,0,0,5.366,11.957,32.56,32.56,0,0,0,9.039,9.039,29.289,29.289,0,0,0,12.8,4.613,40.011,40.011,0,0,0,12.522-.094,67.506,67.506,0,0,0,24.1-8.945,73.023,73.023,0,0,0,10.075-7.343,58.1,58.1,0,0,0,7.814-8.286,54.943,54.943,0,0,0,6.214-9.98,37.953,37.953,0,0,0,3.39-11.016,27.959,27.959,0,0,0-.659-11.392,18.015,18.015,0,0,0-5.649-9.038,15.581,15.581,0,0,0-9.981-3.767,21.509,21.509,0,0,0-11.3,2.448,19.148,19.148,0,0,0-7.249,6.873,18.8,18.8,0,0,0-2.637,9.51,18.411,18.411,0,0,0,2.731,9.98,27.625,27.625,0,0,1,2.542-5.555,30.986,30.986,0,0,1,4.143-5.649,14.929,14.929,0,0,1,5.366-3.766,7.064,7.064,0,0,1,6.214.471q3.39,1.693,3.955,6.308a22.779,22.779,0,0,1-1.413,10.262,43.562,43.562,0,0,1-6.214,11.393A35.47,35.47,0,0,1,681.768,153.2a29.221,29.221,0,0,1-12.146-.094,21.528,21.528,0,0,1-10.074-5.367q-4.333-4.047-5.084-11.392a41.739,41.739,0,0,1,.47-12.8,75.451,75.451,0,0,1,3.578-12.616,87.4,87.4,0,0,1,5.649-12.052q3.293-5.834,6.685-11.11,0.94-1.5,1.883-2.825t1.883-2.825A67.684,67.684,0,0,0,695.043,88.7a65.439,65.439,0,0,0,21,0,74.121,74.121,0,0,0,11.3-2.825,63.027,63.027,0,0,0,10.733-4.708,49.843,49.843,0,0,0,9.416-6.779,39.335,39.335,0,0,0,7.343-9.039A32.75,32.75,0,0,0,759.16,53.02a21.478,21.478,0,0,0-1.412-11.2,18.778,18.778,0,0,0-7.155-8.379,24.614,24.614,0,0,0-12.523-3.672,60.669,60.669,0,0,0-23.632,3.672,130.657,130.657,0,0,0-21.749,10.074q-5.463,3.2-10.545,6.779t-9.98,7.72a52.8,52.8,0,0,1-15.347-18.454A71.225,71.225,0,0,1,650.133,16.4,9.478,9.478,0,0,0,647.026,20.538ZM712.932,45.3q3.292-1.787,7.25-3.484a70.615,70.615,0,0,1,8.191-2.919,28.9,28.9,0,0,1,8-1.224,16.645,16.645,0,0,1,8.473,1.883,8.718,8.718,0,0,1,4.143,4.8,10.832,10.832,0,0,1-.188,6.591,17.3,17.3,0,0,1-4.52,7.061,34.044,34.044,0,0,1-6.59,5.084,53.116,53.116,0,0,1-7.815,3.86,48.185,48.185,0,0,1-8.285,2.448,54.55,54.55,0,0,1-7.815,1.036,62.792,62.792,0,0,1-13.275-.659,68.023,68.023,0,0,1-12.9-3.3,126.09,126.09,0,0,1,20.337-18.077A38.4,38.4,0,0,1,712.932,45.3Zm111.1,30.976q-2.168-2.825-10.828-5.461-3.2-.94-4.99.471a16.393,16.393,0,0,0-3.483,4.049q-6.594,10.733-12.334,21.184a173.259,173.259,0,0,1-12.9,20.055q-3.2,4.143-6.308,8.1t-6.685,7.72a38.721,38.721,0,0,1-9.038,7.532q-4.335,2.45-6.214.942t-0.377-7.626q1.5-6.117,8.662-18.172,2.825-4.7,6.026-9.886t6.59-10.168q3.39-4.987,6.591-9.509t6.026-7.909a17.331,17.331,0,0,0-2.637-2.448,20.081,20.081,0,0,0-3.954-2.354A14.661,14.661,0,0,0,773,71.568a16.621,16.621,0,0,0-6.308.941,14,14,0,0,0-4.708,2.919q-2.449,2.167-4.8,4.708a56.7,56.7,0,0,0-4.331,5.273q-1.977,2.732-3.3,4.613A131.335,131.335,0,0,0,739.2,107.44a116,116,0,0,0-7.344,18.736,68.031,68.031,0,0,0-1.883,8.286,32.506,32.506,0,0,0-.282,8.85,23.712,23.712,0,0,0,2.354,8.1,15.049,15.049,0,0,0,6.025,6.214,12.131,12.131,0,0,0,9.886,1.035,31.909,31.909,0,0,0,10.451-5.837,68.544,68.544,0,0,0,10.169-10.262q4.893-6.025,9.226-12.052a38.861,38.861,0,0,0-1.694,12.522,23.368,23.368,0,0,0,3.954,12.146q3.39,5.463,8.191,6.873a18.852,18.852,0,0,0,9.886.188A33.24,33.24,0,0,0,808.023,158a41.668,41.668,0,0,0,8.191-6.59,113.825,113.825,0,0,0,13.935-17.324q6.024-9.224,12.051-20.337-0.38-3.2-1.883-3.672a6.3,6.3,0,0,0-4.143.659q-2.639,4.9-6.214,10.451t-7.626,10.828a97.026,97.026,0,0,1-8.285,9.509,34.634,34.634,0,0,1-8.191,6.308q-4.71,2.45-7.156-1.318t0.942-13.746a107.888,107.888,0,0,1,5.555-12.9q3.291-6.5,6.684-12.8t6.685-12.428q3.293-6.117,5.932-11.769Q826.194,79.1,824.029,76.276Zm68.54-22.6a22.253,22.253,0,0,0-6.873,1.036,24.894,24.894,0,0,0-5.837,2.73,15.155,15.155,0,0,0-4.143,3.766,29.65,29.65,0,0,0-2.824,4.519q-3.39,4.519-7.25,9.792t-8,10.733q-4.144,5.464-8.285,10.922t-7.909,10.545a28.524,28.524,0,0,0-21.561,9.416,32.437,32.437,0,0,0-4.9,7.061,28.71,28.71,0,0,0-2.73,8.1,24.657,24.657,0,0,0,0,8.568q1.695,10.168,8.38,14.593a28.928,28.928,0,0,0,15.346,4.708,49.132,49.132,0,0,0,17.512-2.73,45.283,45.283,0,0,0,14.688-7.909,54.5,54.5,0,0,0,11.11-12.617,41.294,41.294,0,0,0,8.85-.564,30.522,30.522,0,0,0,8.474-2.825,26.544,26.544,0,0,0,10.639-8.568,117.127,117.127,0,0,0,7.25-11.2q-0.945-5.27-6.026-3.013a27.961,27.961,0,0,1-3.86,5.744,25.644,25.644,0,0,1-5.367,4.707,22.074,22.074,0,0,1-6.685,2.919,15.64,15.64,0,0,1-7.626,0,99.3,99.3,0,0,0,3.39-15.347q1.13-8,2.071-15.817t1.977-15.064A72.058,72.058,0,0,1,895.488,64.6a36.569,36.569,0,0,1,4.519-9.415A19.948,19.948,0,0,0,892.569,53.679Zm-47.075,93.116a20.186,20.186,0,0,1-9.6,2.448,13.2,13.2,0,0,1-8.1-2.824q-3.481-2.729-4.237-8.191a11.183,11.183,0,0,1,.471-5.179,14.216,14.216,0,0,1,2.354-4.425,11.33,11.33,0,0,1,5.084-3.3,15.562,15.562,0,0,1,5.932-.565,23.392,23.392,0,0,1,6.119,1.412q3.011,1.129,5.461,2.26a63.4,63.4,0,0,0,9.227,3.954,29.23,29.23,0,0,1-3.954,6.779A25.122,25.122,0,0,1,845.494,146.795Zm21.09-47.17a102.158,102.158,0,0,1-1.978,14.5l-7.155-3.2q-3.77-1.316-7.344-2.26,4.52-5.835,9.133-11.957T868,85.126Q867.051,92.285,866.584,99.625ZM963.369,35.6A14.792,14.792,0,0,0,959.6,33.06a16.606,16.606,0,0,0-4.519-1.412,4.9,4.9,0,0,0-3.86.753,10.762,10.762,0,0,0-3.107,4.048,46.283,46.283,0,0,1-2.354,4.614L940.3,51.42a19.031,19.031,0,0,1-1.883.282,18.391,18.391,0,0,1-1.883.094,83.312,83.312,0,0,0-10.263,1.883,25.192,25.192,0,0,0-9.509,4.519,13.341,13.341,0,0,0-2.919,3.2,19.127,19.127,0,0,0-2.259,4.519,17.092,17.092,0,0,0-.942,4.99,8.96,8.96,0,0,0,.848,4.425q1.5,0,6.025-.471t10.357-1.224q-5.465,9.6-10.828,19.113a197.314,197.314,0,0,0-9.7,19.678q-1.7,3.954-3.39,8.191a80.162,80.162,0,0,0-2.918,8.756,45.445,45.445,0,0,0-1.507,9.039,27.917,27.917,0,0,0,.848,8.85,16.443,16.443,0,0,0,3.766,7.344,12.876,12.876,0,0,0,6.967,4.143,24.1,24.1,0,0,0,11.581.188,26.772,26.772,0,0,0,10.262-4.519,58.713,58.713,0,0,0,9.792-8.38,132.056,132.056,0,0,0,8.568-10.074,115.48,115.48,0,0,0,7.438-10.922q3.389-5.649,6.4-11.3-0.566-6.024-6.214-3.013a126.671,126.671,0,0,1-7.156,12.334,95.219,95.219,0,0,1-7.908,10.263,60.873,60.873,0,0,1-11.675,10.262q-5.465,3.488-8.662,2.919t-3.295-5.367q-0.1-4.8,4.425-14.782,2.259-4.893,4.331-8.944t2.824-5.555l16.006-32.2,4.331-9.039h0.377q1.129-.185,3.954-0.565t6.214-.753q3.39-.375,6.779-0.942t5.649-.942q2.445-.375,2.919-1.13t-0.094-3.578a12.489,12.489,0,0,0-3.484-6.5,15.258,15.258,0,0,0-6.5-3.86,42.664,42.664,0,0,0-6.779-1.13l2.259-4.519q1.13-2.26,1.883-4.049a6.658,6.658,0,0,0,0-4.425A7.189,7.189,0,0,0,963.369,35.6ZM1011.1,74.958a20.741,20.741,0,0,0-6.68-1.977,28.338,28.338,0,0,0-6.876-.094A31.968,31.968,0,0,0,985.4,76.464a48.9,48.9,0,0,0-10.451,7.344,60.67,60.67,0,0,0-8.474,10.168,65.287,65.287,0,0,0-9.98,25.139,52.507,52.507,0,0,0-.565,13.275,37.069,37.069,0,0,0,2.825,11.11,32.078,32.078,0,0,0,6.026,9.321,25.654,25.654,0,0,0,8.85,6.214,24.69,24.69,0,0,0,11.3,1.789,30.161,30.161,0,0,0,9.7-2.354,40.02,40.02,0,0,0,8.564-4.99,53.958,53.958,0,0,0,7.44-6.873q3.48-3.857,6.5-7.815,12.99-.939,21.94-7.249t14.97-17.8q-0.57-5.459-6.03-3.013-4.335,8.1-10.07,11.863a12.072,12.072,0,0,1-11.77,1.319,75.025,75.025,0,0,0,5.27-16.665,41.064,41.064,0,0,0-.19-17.042,27.4,27.4,0,0,0-4.71-9.6,14.377,14.377,0,0,0-8.85-5.649,11.685,11.685,0,0,0-6.02.377Zm-13.273,48.864a7.985,7.985,0,0,0-.094,6.873,10.3,10.3,0,0,0,3.3,4.049,18.328,18.328,0,0,0,4.8,2.542q-5.655,6.594-11.864,8.756t-10.921-.282a10.33,10.33,0,0,1-5.461-6.308,27.255,27.255,0,0,1-1.224-10.169,49.5,49.5,0,0,1,2.26-12.145A72.9,72.9,0,0,1,983.7,104.8a56.357,56.357,0,0,1,7.25-10.734,30.215,30.215,0,0,1,8.85-7.25,25.636,25.636,0,0,1,5.836-2.26,21.5,21.5,0,0,1,6.4-.565,27.783,27.783,0,0,1,4.43,3.86,13.169,13.169,0,0,1,2.73,5.178,37.863,37.863,0,0,1,1.03,10.921,44.962,44.962,0,0,1-1.78,10.545,7.245,7.245,0,0,0-2.26-2.071,7.424,7.424,0,0,0-6.69.188,28.151,28.151,0,0,0-6.87,4.52A20.2,20.2,0,0,0,997.827,123.822Zm183.4,3.955a44.425,44.425,0,0,1-13.46,11.769q-7.9,4.334-11.21,2.353-3.285-1.977-1.22-7.814a108.206,108.206,0,0,1,6.87-15.912q4.05-7.626,8.01-15.346l8.09-15.253q0.945-1.695,1.89-3.578a15.638,15.638,0,0,0,1.32-3.766q0.375-1.315-2.45-4.143A26.716,26.716,0,0,0,1171.35,71a15.672,15.672,0,0,0-9.42-1.506q-4.71.755-12.05,5.837a122.128,122.128,0,0,0-25.8,23.915l4.52-9.227a48.217,48.217,0,0,1,2.45-4.613,14.345,14.345,0,0,0,1.88-4.613,4.577,4.577,0,0,0-1.22-3.2,20.556,20.556,0,0,0-3.67-3.672,23.676,23.676,0,0,0-4.99-3.013,15.716,15.716,0,0,0-5.18-1.412,11.164,11.164,0,0,0-4.99.753,26.948,26.948,0,0,0-4.43,2.26,46.558,46.558,0,0,0-3.86,2.73,35.364,35.364,0,0,0-2.92,2.542,97.318,97.318,0,0,0-7.72,7.344q-4.515,4.709-9.22,9.886t-9.04,10.168q-4.335,4.992-6.97,8.192,1.695-3.011,4.33-7.344t5.56-8.945q2.91-4.612,5.83-9.227t4.99-8.379q1.89-3.389.76-5.461t-5.46-5.461q-4.335-3.2-7.91-1.977a9.2,9.2,0,0,0-5.27,4.237l-11.49,18.83q-4.14,6.594-8.57,14.311T1043.3,119.3q-3.765,7.626-6.59,14.5a56.205,56.205,0,0,0-3.58,11.393,6.2,6.2,0,0,0,1.41,4.707,19.411,19.411,0,0,0,4.43,4.331,15.485,15.485,0,0,0,5.37,2.542,4.96,4.96,0,0,0,4.42-.659,22.536,22.536,0,0,0,3.01-3.389q1.89-2.445,3.86-5.084t3.68-5.084c1.13-1.63,1.94-2.76,2.44-3.39q3.96-5.459,8.01-10.733t8.38-10.545q6.585-8.285,13.84-16.288t14.97-15.159q-6.78,13.183-12.53,24.856t-10.82,22.973c-0.26.753-.66,1.789-1.23,3.107s-1.13,2.669-1.69,4.049-1.07,2.668-1.51,3.86-0.72,2.042-.85,2.542a5.861,5.861,0,0,0,1.04,4.519,11.334,11.334,0,0,0,3.58,3.107,27.643,27.643,0,0,0,4.61,2.072,19.286,19.286,0,0,0,4.33,1.035,4.46,4.46,0,0,0,3.11-1.694,41.1,41.1,0,0,0,3.86-5.085q2.265-3.388,5.27-8.285t7.35-11.11q4.89-7.153,9.98-13.84t10.73-13.276q4.515-5.27,10.64-11.109T1154.4,84q-3.765,7.534-8,14.593a111.144,111.144,0,0,0-7.44,14.782q-1.89,4.334-3.67,9.321a57.134,57.134,0,0,0-2.64,10.262,37.767,37.767,0,0,0-.28,10.263,16.954,16.954,0,0,0,3.76,8.944,15.042,15.042,0,0,0,8.29,6.12,19.516,19.516,0,0,0,9.51.094,33.418,33.418,0,0,0,9.41-3.86,51.654,51.654,0,0,0,8.2-5.932,104.858,104.858,0,0,0,14.68-16.006,144.126,144.126,0,0,0,11.87-18.83c-0.26-1.883-.95-2.948-2.08-3.2a8.648,8.648,0,0,0-3.95.188A118.609,118.609,0,0,1,1181.23,127.777Zm67.23-74.1a22.321,22.321,0,0,0-6.88,1.036,24.842,24.842,0,0,0-5.83,2.73,15.278,15.278,0,0,0-4.15,3.766,29.382,29.382,0,0,0-2.82,4.519q-3.39,4.519-7.25,9.792t-8,10.733q-4.155,5.464-8.29,10.922t-7.91,10.545a28.552,28.552,0,0,0-21.56,9.416,32.239,32.239,0,0,0-4.89,7.061,28.553,28.553,0,0,0-2.73,8.1,24.657,24.657,0,0,0,0,8.568q1.695,10.168,8.37,14.593a28.956,28.956,0,0,0,15.35,4.708,49.125,49.125,0,0,0,17.51-2.73,45.273,45.273,0,0,0,14.69-7.909,54.435,54.435,0,0,0,11.11-12.617,41.311,41.311,0,0,0,8.85-.564,30.6,30.6,0,0,0,8.48-2.825,26.53,26.53,0,0,0,10.63-8.568,115.6,115.6,0,0,0,7.25-11.2q-0.945-5.27-6.02-3.013a28.042,28.042,0,0,1-3.86,5.744,25.56,25.56,0,0,1-5.37,4.707,22.143,22.143,0,0,1-6.68,2.919,15.656,15.656,0,0,1-7.63,0,98.49,98.49,0,0,0,3.39-15.347q1.125-8,2.07-15.817t1.98-15.064a71.571,71.571,0,0,1,3.11-13.275,36.682,36.682,0,0,1,4.51-9.415A19.931,19.931,0,0,0,1248.46,53.679Zm-47.08,93.116a20.191,20.191,0,0,1-9.6,2.448,13.185,13.185,0,0,1-8.1-2.824q-3.48-2.729-4.24-8.191a11.25,11.25,0,0,1,.47-5.179,14.207,14.207,0,0,1,2.36-4.425,11.3,11.3,0,0,1,5.08-3.3,15.569,15.569,0,0,1,5.93-.565,23.326,23.326,0,0,1,6.12,1.412q3.015,1.129,5.46,2.26a63.715,63.715,0,0,0,9.23,3.954,29.438,29.438,0,0,1-3.95,6.779A25.142,25.142,0,0,1,1201.38,146.795Zm21.09-47.17a100.6,100.6,0,0,1-1.98,14.5l-7.15-3.2q-3.765-1.316-7.35-2.26,4.53-5.835,9.14-11.957t8.75-11.581Q1222.935,92.285,1222.47,99.625ZM1263.9,112.9a2.562,2.562,0,0,0,1.22,1.6,15.35,15.35,0,0,1,5.84,7.909,34.475,34.475,0,0,1,1.79,12.052,63.611,63.611,0,0,1-2.08,14.593,79.9,79.9,0,0,1-5.74,15.535,41.236,41.236,0,0,1-15.16,16.947,68.235,68.235,0,0,1-20.62,8.38,110.135,110.135,0,0,1-22.88,2.73q-11.76.186-21.74,0-17.9-.379-42.18-1.6t-52.64-2.919q-28.335-1.695-59.59-3.578t-63.179-3.483q-31.917-1.6-63.364-2.637T843.508,177.4q-28.62,0-53.29,1.224a391.245,391.245,0,0,0-43.121,4.236,126.293,126.293,0,0,0-17.606,4.426,100.517,100.517,0,0,0-19.113,8.473,85.485,85.485,0,0,0-17.418,13.181,59.658,59.658,0,0,0-12.711,18.172,66.622,66.622,0,0,0-2.542,6.873q-0.657,2.352.283,2.918t3.672-.282q2.731-.848,7.814-2.542,19.587-6.779,49.806-11.392t68.26-7.344q38.038-2.732,82.477-3.86t92.551-.942q48.12,0.186,98.48,1.506,50.385,1.316,100.09,3.2a183.7,183.7,0,0,0,29.18-1.13,89.235,89.235,0,0,0,25.42-6.873,67.989,67.989,0,0,0,20.91-14.5q9.225-9.321,15.62-24.2a97.694,97.694,0,0,0,5.56-16.1,76.219,76.219,0,0,0,2.26-15.346,52.063,52.063,0,0,0-1.13-13.558,26.286,26.286,0,0,0-4.8-10.545c-1.89-2.51-3.83-3.766-5.84-3.766s-3.33.5-3.95,1.506A2.592,2.592,0,0,0,1263.9,112.9Z"/>
  <path id="Ezekiel_Customs_2" data-name="Ezekiel Customs&gt;" class="cls-3" d="M47.059,1.675a31.3,31.3,0,0,0-.377,3.672q-0.1,1.977,0,3.954a16.108,16.108,0,0,0,.282,2.73,39.164,39.164,0,0,0,3.389,12.24,46.7,46.7,0,0,0,6.591,10.357,33.594,33.594,0,0,0-4.708,15.818,26.326,26.326,0,0,0,3.954,15.441,111.712,111.712,0,0,0-21.184,8.85A79.1,79.1,0,0,0,16.553,88.389,61.349,61.349,0,0,0,3.937,106.56a45.985,45.985,0,0,0-3.86,22.22q0.75,13.936,7.815,22.878A37.327,37.327,0,0,0,25.5,164.181a47.692,47.692,0,0,0,23.255,1.506,65.222,65.222,0,0,0,24.95-9.98,91.991,91.991,0,0,0,9.886-7.532,58.277,58.277,0,0,0,8.85-9.6,36.751,36.751,0,0,0,5.649-11.3,24.5,24.5,0,0,0,.282-12.616,17.624,17.624,0,0,0-5.461-9.415,18.259,18.259,0,0,0-9.039-4.237,21.741,21.741,0,0,0-10.357.847,22.7,22.7,0,0,0-9.227,5.649,25.665,25.665,0,0,0-6.967,12.711,23.547,23.547,0,0,0,1.13,14.4q1.695-2.445,3.954-5.649a50.844,50.844,0,0,1,4.99-6.026,26.167,26.167,0,0,1,5.649-4.519,10.715,10.715,0,0,1,6.12-1.506,5.024,5.024,0,0,1,4.8,3.671,14.569,14.569,0,0,1,0,8.38,32.648,32.648,0,0,1-5.178,10.545,38.96,38.96,0,0,1-10.922,10.168,40.884,40.884,0,0,1-14.876,5.932A22.6,22.6,0,0,1,39.9,154.295a19.058,19.058,0,0,1-9.133-8.945q-3.39-6.4-3.2-16.57A57.709,57.709,0,0,1,33.5,105.242a55.97,55.97,0,0,1,14.97-19.207A69.563,69.563,0,0,1,67.113,75.678a27.048,27.048,0,0,0,9.133,2.542,33.592,33.592,0,0,0,9.7-.471q3.01-.565,7.344-1.789A10.959,10.959,0,0,0,99.5,72.1a6.238,6.238,0,0,0,1.224-4.519,6.134,6.134,0,0,0-2.354-4.143,7.25,7.25,0,0,0-4.049-1.789,38.731,38.731,0,0,0-4.613-.282H83.872a6.867,6.867,0,0,1-2.448-6.214c0-.753.029-1.506,0.094-2.26s0.156-1.506.282-2.26a63.329,63.329,0,0,0,18.077,3.013,49.351,49.351,0,0,0,17.7-2.825,51.3,51.3,0,0,0,9.6-4.519,28.27,28.27,0,0,0,7.908-6.967,17.589,17.589,0,0,0,3.861-11.675q-0.283-6.214-5.744-10.545a26.352,26.352,0,0,0-8.473-4.519,38.977,38.977,0,0,0-9.7-1.789A67.925,67.925,0,0,0,104.962,11q-5.085.472-9.6,1.224a91.653,91.653,0,0,0-14.5,3.86,52.645,52.645,0,0,0-13.181,6.873A68.654,68.654,0,0,1,56.85,12.408,79.678,79.678,0,0,1,48.283-.4,2.435,2.435,0,0,0,47.059,1.675Zm85.4,23.82q1.879,3.487-.753,7.438a13.345,13.345,0,0,1-7.344,5.178,36.995,36.995,0,0,1-9.039,1.6,46.808,46.808,0,0,1-12.428-.942,82.73,82.73,0,0,1-12.428-3.578A59.789,59.789,0,0,1,97.9,28.6a50.985,50.985,0,0,1,9.039-5.461,37.762,37.762,0,0,1,9.792-3.107,20.261,20.261,0,0,1,9.7.659A9.966,9.966,0,0,1,132.454,25.5Zm49.992,55.738q2.917-1.222,5.932-2.542,0.75-9.414-.942-12.616a5.978,5.978,0,0,0-5.272-3.389q-2.074,0-6.591.188t-10.262.282q-5.747.1-11.957,0.282t-11.675.188q-5.465,0-9.51-.094a17.227,17.227,0,0,1-5.366-.659,22.973,22.973,0,0,0-1.13,10.545q0.75,4.519,6.591,7.72a13.578,13.578,0,0,0,6.119,1.695,56.149,56.149,0,0,0,7.25-.094q3.765-.282,7.626-0.753a60.441,60.441,0,0,1,7.25-.471q-2.824,1.884-4.9,3.578t-4.707,3.954q-4.335,3.769-9.227,8.191T131.6,106.183q-5.182,4.519-10.169,8.756t-9.509,7.815q-5.27,4.144-10.828,8a67.778,67.778,0,0,1-11.58,6.5,4.316,4.316,0,0,0-2.354,2.542q-0.847,1.977.094,6.12t2.448,5.743a6.524,6.524,0,0,0,4.519,1.789,22.446,22.446,0,0,0,4.99-.188q2.542-.379,4.99-0.753,9.039-.941,18.925-1.507t19.3-.659q9.414-.092,17.606.283a120.037,120.037,0,0,1,13.841,1.318,25.544,25.544,0,0,0-.471-11.769q-1.6-5.552-8.568-9.321a26.241,26.241,0,0,0-10.545-2.919,72.438,72.438,0,0,0-12.71.189q-6.687.662-13.37,1.977t-12.522,2.259a84.429,84.429,0,0,0,9.792-6.967q5.084-4.14,10.168-8.662t9.886-8.944q4.8-4.422,9.133-8,5.084-4.329,10.545-8.38A108.762,108.762,0,0,1,176.7,83.963Q179.528,82.458,182.446,81.233Zm53.572,27.775a56.028,56.028,0,0,0,15.158-9.039,33.766,33.766,0,0,0,10.263-14.311,24.365,24.365,0,0,0,1.506-7.155,15.811,15.811,0,0,0-1.035-6.685,14.32,14.32,0,0,0-3.861-5.461,14.9,14.9,0,0,0-6.59-3.3,35.552,35.552,0,0,0-17.042,0,63.142,63.142,0,0,0-16.1,5.837,54.928,54.928,0,0,0-12.993,9.886A76.507,76.507,0,0,0,187.53,107.6a53.079,53.079,0,0,0-2.919,15.911,33.609,33.609,0,0,0,14.5,29q9.414,6.024,22.6,2.259T248.446,139.7A128.987,128.987,0,0,0,263.981,123.7a101.4,101.4,0,0,0,11.392-16.947q-0.379-3.575-2.165-3.672a9.844,9.844,0,0,0-3.86.659,106.886,106.886,0,0,1-10.64,15.724,67.623,67.623,0,0,1-14.216,13.275q-9.793,6.215-17.7,7.909t-12.9-.942q-4.99-2.634-6.4-9.415t1.977-17.324a30.785,30.785,0,0,0,4.237.471,31.173,31.173,0,0,0,4.237-.094,55.848,55.848,0,0,0,18.077-4.331h0Zm1.506-34.271a24.163,24.163,0,0,1,4.708-2.448,7.848,7.848,0,0,1,4.331-.565q1.88,0.38,1.883,3.39a15.014,15.014,0,0,1-2.825,9.98A47.685,47.685,0,0,1,238.654,93a46.217,46.217,0,0,1-9.6,7.061,77.459,77.459,0,0,1-10.922,4.99q-3.579,1.32-6.4,2.072a92.924,92.924,0,0,1,9.7-16.194,85.8,85.8,0,0,1,12.711-13.746Q235.265,76.244,237.524,74.737ZM358.7,117.764a111.015,111.015,0,0,1-10.451,12.9,42.634,42.634,0,0,1-4.519,4.236,39.2,39.2,0,0,1-5.649,3.861,21.574,21.574,0,0,1-6.12,2.353,8.508,8.508,0,0,1-5.744-.659q-2.259-1.13-3.671-5.084a48.277,48.277,0,0,1-2.166-8.662,78.131,78.131,0,0,1-.941-9.038,26.655,26.655,0,0,1,.188-6.026,49.872,49.872,0,0,0,5.461-1.412q2.634-.847,5.272-1.789a63.741,63.741,0,0,0,9.415-5.178,52.488,52.488,0,0,0,8.662-7.156,50.859,50.859,0,0,0,6.873-8.756,31.45,31.45,0,0,0,4.049-9.792,25.034,25.034,0,0,0-.094-9.886,14.258,14.258,0,0,0-4.8-8.191,11.147,11.147,0,0,0-6.685-3.013,10.729,10.729,0,0,0-7.061,1.695,11.255,11.255,0,0,0-3.672.282q-2.167.472-4.237,1.13a30.453,30.453,0,0,0-3.672,1.412,19.715,19.715,0,0,0-2.165,1.13A83.473,83.473,0,0,0,313.5,71.912q-6.876,6.029-12.146,11.486,3.765-6.214,8.757-13.746t8.756-13.746q2.634-4.519,5.46-8.944a86.493,86.493,0,0,0,5.085-9.133,18.374,18.374,0,0,0,2.353-8.38,13.141,13.141,0,0,0-1.035-5.367,12.693,12.693,0,0,0-3.766-3.954,31.375,31.375,0,0,0-4.331-2.448,23.493,23.493,0,0,0-5.084-1.318q-3.015,5.464-5.461,10.357-2.26,4.334-4.425,8.474t-3.484,6.214l-11.3,19.207-13.37,23.35q-5.463,9.6-10.356,19.3t-9.227,19.866q-1.131,2.448-2.072,5.178t-1.6,5.272q-0.659,2.543-1.036,4.614a9.031,9.031,0,0,0-.188,3.013,11.742,11.742,0,0,0,4.142,7.908,12.8,12.8,0,0,0,8.1,3.578q1.13-2.07,3.107-5.837t3.954-7.627q1.977-3.857,3.578-7.061t2.165-4.143a230.364,230.364,0,0,1,17.889-26.739q4.329-5.834,9.039-11.3t9.98-10.545q2.259-2.07,5.272-4.614a65.684,65.684,0,0,1,6.308-4.707q3.293-2.163,6.5-3.86a18.487,18.487,0,0,1,5.649-2.071,14.2,14.2,0,0,1-.753,8.474,34.178,34.178,0,0,1-4.614,8.191,51.851,51.851,0,0,1-6.308,6.967,57.647,57.647,0,0,1-5.837,4.8,62.9,62.9,0,0,1-10.169,5.461,75.884,75.884,0,0,1-12.051,4.143,8.754,8.754,0,0,0-.565,2.354q-0.379,2.166-.753,4.8t-0.754,5.179a28.284,28.284,0,0,0-.376,3.483,79.114,79.114,0,0,0-.283,8.662,42.024,42.024,0,0,0,1.036,8.474,36.631,36.631,0,0,0,2.825,8,23.462,23.462,0,0,0,5.084,6.873,19.374,19.374,0,0,0,11.486,5.743,24.309,24.309,0,0,0,12.805-1.789,48.084,48.084,0,0,0,13.464-8.85,112.48,112.48,0,0,0,11.015-11.675,173.147,173.147,0,0,0,17.324-26.739q-1.13-4.14-6.025-3.013A149.532,149.532,0,0,1,358.7,117.764Zm49.427-55.832a20.728,20.728,0,0,0-5.931-1.036,18.581,18.581,0,0,0-5.932.753A13.789,13.789,0,0,0,391.553,64a46.007,46.007,0,0,0-9.321,10.545q-4.052,6.214-7.438,12.24a119.3,119.3,0,0,0-9.416,21.372,81.673,81.673,0,0,0-4.142,23.068,32.322,32.322,0,0,0,1.977,12.145,14.438,14.438,0,0,0,8.568,8.568q6.024,2.634,14.217-.847t18.359-14.217a107.1,107.1,0,0,0,12.052-14.406,170.387,170.387,0,0,0,9.791-15.723q-0.943-5.459-6.025-3.013a86.531,86.531,0,0,1-9.039,13.746,103.312,103.312,0,0,1-11.3,12.052q-6.215,5.463-10.168,7.25t-6.026.659q-2.074-1.131-2.166-4.8a34.094,34.094,0,0,1,1.413-9.321q1.879-6.024,4.331-11.863t5.084-11.675q1.315-3.01,3.86-7.72t5.367-9.792q2.824-5.084,5.837-9.792a67.779,67.779,0,0,1,5.273-7.344A9.1,9.1,0,0,0,408.123,61.932ZM420.175,47.9a13.159,13.159,0,0,0,6.967-3.484,14.279,14.279,0,0,0,3.672-6.214,19.338,19.338,0,0,0,.659-7.344,17.151,17.151,0,0,0-1.789-4.708q-1.6-3.2-7.25-5.084a23.62,23.62,0,0,0-4.99-1.318,17.96,17.96,0,0,0-5.178,0,8.418,8.418,0,0,0-6.5,5.084,37.03,37.03,0,0,0-2.543,8.662,10.508,10.508,0,0,0,2.072,8.944,15.052,15.052,0,0,0,7.155,4.99A16.845,16.845,0,0,0,420.175,47.9Zm45.567,61.1A56.048,56.048,0,0,0,480.9,99.969a33.772,33.772,0,0,0,10.262-14.311A24.4,24.4,0,0,0,492.67,78.5a15.827,15.827,0,0,0-1.036-6.685,14.328,14.328,0,0,0-3.86-5.461,14.912,14.912,0,0,0-6.591-3.3,35.548,35.548,0,0,0-17.041,0,63.128,63.128,0,0,0-16.1,5.837,54.888,54.888,0,0,0-12.993,9.886A76.526,76.526,0,0,0,417.254,107.6a53.078,53.078,0,0,0-2.918,15.911,33.6,33.6,0,0,0,14.5,29q9.414,6.024,22.6,2.259T478.17,139.7A128.916,128.916,0,0,0,493.705,123.7,101.4,101.4,0,0,0,505.1,106.748q-0.379-3.575-2.166-3.672a9.85,9.85,0,0,0-3.86.659,106.876,106.876,0,0,1-10.639,15.724,67.628,67.628,0,0,1-14.217,13.275q-9.793,6.215-17.7,7.909t-12.9-.942q-4.992-2.634-6.4-9.415t1.978-17.324a30.787,30.787,0,0,0,4.236.471,31.173,31.173,0,0,0,4.237-.094,55.836,55.836,0,0,0,18.077-4.331h0Zm1.507-34.271a24.127,24.127,0,0,1,4.707-2.448,7.848,7.848,0,0,1,4.331-.565q1.881,0.38,1.883,3.39a15.013,15.013,0,0,1-2.824,9.98A47.731,47.731,0,0,1,468.379,93a46.249,46.249,0,0,1-9.6,7.061,77.448,77.448,0,0,1-10.921,4.99q-3.58,1.32-6.4,2.072a92.867,92.867,0,0,1,9.7-16.194,85.844,85.844,0,0,1,12.71-13.746Q464.99,76.244,467.249,74.737Zm97.257-54.89a39.757,39.757,0,0,0-6.685,3.484,53.471,53.471,0,0,0-8.756,6.12q-4.052,3.487-7.815,7.438a143.217,143.217,0,0,0-16.665,21q-7.44,11.4-14.216,22.879-3.015,5.084-6.026,10.733a113.194,113.194,0,0,0-5.367,11.58,91.483,91.483,0,0,0-3.86,12.146,60.571,60.571,0,0,0-1.695,12.428q-0.375,9.982,3.107,16.288a20.782,20.782,0,0,0,9.133,9.039,22.209,22.209,0,0,0,12.805,1.788,35.491,35.491,0,0,0,14.311-5.46,76.6,76.6,0,0,0,11.58-9.039,114.929,114.929,0,0,0,9.98-10.733,127.506,127.506,0,0,0,8.38-11.487q3.765-5.834,6.59-11.3-0.564-2.825-2.071-3.389a5.678,5.678,0,0,0-3.954.376,80.366,80.366,0,0,1-6.873,10.922,104.345,104.345,0,0,1-8.474,10.074,106.831,106.831,0,0,1-8.85,8.285,53.584,53.584,0,0,1-8.191,5.744q-6.78,3.768-10.451,2.824a6.852,6.852,0,0,1-4.99-4.331,17.43,17.43,0,0,1-.848-8.1,49.365,49.365,0,0,1,1.6-8.662q0.94-2.634,1.789-5.084t1.789-5.084a4.17,4.17,0,0,0,1.318-1.036,5.714,5.714,0,0,1,1.13-1.035q1.88-1.506,3.766-3.013t3.954-3.013q6.779-5.649,13.087-11.957t12.146-12.9q5.083-5.834,9.7-11.863a112.88,112.88,0,0,0,8.38-12.616,130.237,130.237,0,0,0,6.5-11.863,34.012,34.012,0,0,0,3.484-12.993,18.71,18.71,0,0,0-.094-4.143,6.883,6.883,0,0,0-1.6-3.766,6.338,6.338,0,0,0-3.013-1.789,3.491,3.491,0,0,0-3.577.659,10.144,10.144,0,0,0-3.2-.565A19.106,19.106,0,0,0,564.506,19.846ZM534.1,82.08q5.833-9.979,12.145-19.489T559.7,44.043q3.2-3.575,6.685-6.779t6.873-6.4a59.616,59.616,0,0,1-4.237,10.263,100.807,100.807,0,0,1-5.743,9.509q-4.335,6.594-9.039,12.993t-9.792,12.428q-3.954,4.519-8.1,8.85t-8.473,8.285ZM643.026,13.538a34.658,34.658,0,0,0-1.977,6.12,39.223,39.223,0,0,0-.942,6.5q-0.19,3.2-.188,5.084A45.217,45.217,0,0,0,644.25,49.41,51.219,51.219,0,0,0,654.795,64a93.286,93.286,0,0,0-6.591,7.72,118.08,118.08,0,0,0-14.5,23.161,64.238,64.238,0,0,0-6.4,26.174,41.733,41.733,0,0,0,1.413,13.37,40.444,40.444,0,0,0,5.366,11.957,32.56,32.56,0,0,0,9.039,9.039,29.289,29.289,0,0,0,12.8,4.613,40.011,40.011,0,0,0,12.522-.094,67.506,67.506,0,0,0,24.1-8.945,73.023,73.023,0,0,0,10.075-7.343,58.1,58.1,0,0,0,7.814-8.286,54.943,54.943,0,0,0,6.214-9.98,37.953,37.953,0,0,0,3.39-11.016,27.959,27.959,0,0,0-.659-11.392,18.015,18.015,0,0,0-5.649-9.038,15.584,15.584,0,0,0-9.981-3.766,21.509,21.509,0,0,0-11.3,2.448,19.144,19.144,0,0,0-7.249,6.873,18.793,18.793,0,0,0-2.637,9.509,18.411,18.411,0,0,0,2.731,9.98,27.625,27.625,0,0,1,2.542-5.555,30.986,30.986,0,0,1,4.143-5.649,14.929,14.929,0,0,1,5.366-3.766,7.064,7.064,0,0,1,6.214.471q3.39,1.693,3.955,6.308a22.779,22.779,0,0,1-1.413,10.262,43.562,43.562,0,0,1-6.214,11.393A35.47,35.47,0,0,1,677.768,146.2a29.221,29.221,0,0,1-12.146-.094,21.528,21.528,0,0,1-10.074-5.367q-4.333-4.047-5.084-11.392a41.739,41.739,0,0,1,.47-12.8,75.451,75.451,0,0,1,3.578-12.616,87.384,87.384,0,0,1,5.649-12.052q3.293-5.834,6.685-11.11,0.94-1.5,1.883-2.825t1.883-2.825A67.684,67.684,0,0,0,691.043,81.7a65.439,65.439,0,0,0,21,0,74.121,74.121,0,0,0,11.3-2.825,63.027,63.027,0,0,0,10.733-4.708,49.843,49.843,0,0,0,9.416-6.779,39.335,39.335,0,0,0,7.343-9.039A32.75,32.75,0,0,0,755.16,46.02a21.478,21.478,0,0,0-1.412-11.2,18.778,18.778,0,0,0-7.155-8.379,24.614,24.614,0,0,0-12.523-3.672,60.669,60.669,0,0,0-23.632,3.672,130.657,130.657,0,0,0-21.749,10.074q-5.463,3.2-10.545,6.779t-9.98,7.72a52.8,52.8,0,0,1-15.347-18.454A71.225,71.225,0,0,1,646.133,9.4,9.479,9.479,0,0,0,643.026,13.538ZM708.932,38.3q3.292-1.787,7.25-3.484a70.615,70.615,0,0,1,8.191-2.919,28.9,28.9,0,0,1,8-1.224,16.645,16.645,0,0,1,8.473,1.883,8.718,8.718,0,0,1,4.143,4.8,10.832,10.832,0,0,1-.188,6.591,17.3,17.3,0,0,1-4.52,7.061,34.044,34.044,0,0,1-6.59,5.084,53.116,53.116,0,0,1-7.815,3.86,48.185,48.185,0,0,1-8.285,2.448,54.55,54.55,0,0,1-7.815,1.036,62.792,62.792,0,0,1-13.275-.659,68.023,68.023,0,0,1-12.9-3.3,126.09,126.09,0,0,1,20.337-18.077A38.4,38.4,0,0,1,708.932,38.3Zm111.1,30.976q-2.168-2.825-10.828-5.461-3.2-.94-4.99.471a16.393,16.393,0,0,0-3.483,4.049q-6.594,10.733-12.334,21.184a173.293,173.293,0,0,1-12.9,20.055q-3.2,4.143-6.308,8.1t-6.685,7.72a38.721,38.721,0,0,1-9.038,7.532q-4.335,2.45-6.214.942t-0.377-7.626q1.5-6.117,8.662-18.172,2.825-4.7,6.026-9.886t6.59-10.168q3.39-4.987,6.591-9.509t6.026-7.909a17.331,17.331,0,0,0-2.637-2.448,20.081,20.081,0,0,0-3.954-2.354A14.661,14.661,0,0,0,769,64.568a16.621,16.621,0,0,0-6.308.941,14,14,0,0,0-4.708,2.919q-2.449,2.167-4.8,4.708a56.7,56.7,0,0,0-4.331,5.273q-1.977,2.732-3.3,4.613A131.367,131.367,0,0,0,735.2,100.44a116,116,0,0,0-7.344,18.736,68.031,68.031,0,0,0-1.883,8.286,32.506,32.506,0,0,0-.282,8.85,23.712,23.712,0,0,0,2.354,8.1,15.049,15.049,0,0,0,6.025,6.214,12.131,12.131,0,0,0,9.886,1.035,31.909,31.909,0,0,0,10.451-5.837,68.544,68.544,0,0,0,10.169-10.262q4.893-6.025,9.226-12.052a38.861,38.861,0,0,0-1.694,12.522,23.368,23.368,0,0,0,3.954,12.146q3.39,5.463,8.191,6.873a18.852,18.852,0,0,0,9.886.188A33.24,33.24,0,0,0,804.023,151a41.668,41.668,0,0,0,8.191-6.59,113.825,113.825,0,0,0,13.935-17.324q6.024-9.223,12.051-20.337-0.38-3.2-1.883-3.672a6.3,6.3,0,0,0-4.143.659q-2.639,4.9-6.214,10.451t-7.626,10.828a97.026,97.026,0,0,1-8.285,9.509,34.634,34.634,0,0,1-8.191,6.308q-4.71,2.45-7.156-1.318t0.942-13.746a107.888,107.888,0,0,1,5.555-12.9q3.291-6.5,6.684-12.8t6.685-12.428q3.293-6.117,5.932-11.769Q822.194,72.1,820.029,69.276Zm68.54-22.6a22.253,22.253,0,0,0-6.873,1.036,24.894,24.894,0,0,0-5.837,2.73,15.155,15.155,0,0,0-4.143,3.766,29.65,29.65,0,0,0-2.824,4.519q-3.39,4.519-7.25,9.792t-8,10.733q-4.144,5.464-8.285,10.922t-7.909,10.545a28.524,28.524,0,0,0-21.561,9.416,32.437,32.437,0,0,0-4.9,7.061,28.71,28.71,0,0,0-2.73,8.1,24.657,24.657,0,0,0,0,8.568q1.695,10.168,8.38,14.593a28.928,28.928,0,0,0,15.346,4.708,49.132,49.132,0,0,0,17.512-2.73,45.283,45.283,0,0,0,14.688-7.909,54.5,54.5,0,0,0,11.11-12.617,41.294,41.294,0,0,0,8.85-.564,30.522,30.522,0,0,0,8.474-2.825,26.544,26.544,0,0,0,10.639-8.568,117.127,117.127,0,0,0,7.25-11.2q-0.945-5.27-6.026-3.013a27.961,27.961,0,0,1-3.86,5.744,25.644,25.644,0,0,1-5.367,4.707,22.074,22.074,0,0,1-6.685,2.919,15.64,15.64,0,0,1-7.626,0,99.3,99.3,0,0,0,3.39-15.347q1.13-8,2.071-15.817t1.977-15.064A72.058,72.058,0,0,1,891.488,57.6a36.569,36.569,0,0,1,4.519-9.415A19.948,19.948,0,0,0,888.569,46.679Zm-47.075,93.116a20.186,20.186,0,0,1-9.6,2.448,13.2,13.2,0,0,1-8.1-2.824q-3.481-2.729-4.237-8.191a11.183,11.183,0,0,1,.471-5.179,14.216,14.216,0,0,1,2.354-4.425,11.33,11.33,0,0,1,5.084-3.3,15.562,15.562,0,0,1,5.932-.565,23.392,23.392,0,0,1,6.119,1.412q3.011,1.129,5.461,2.26a63.4,63.4,0,0,0,9.227,3.954,29.23,29.23,0,0,1-3.954,6.779A25.122,25.122,0,0,1,841.494,139.795Zm21.09-47.17a102.152,102.152,0,0,1-1.978,14.5l-7.155-3.2q-3.77-1.316-7.344-2.26,4.52-5.835,9.133-11.957T864,78.126Q863.051,85.285,862.584,92.625ZM959.369,28.6A14.792,14.792,0,0,0,955.6,26.06a16.606,16.606,0,0,0-4.519-1.412,4.9,4.9,0,0,0-3.86.753,10.762,10.762,0,0,0-3.107,4.049,46.283,46.283,0,0,1-2.354,4.613L936.3,44.42a19.031,19.031,0,0,1-1.883.282,18.391,18.391,0,0,1-1.883.094,83.312,83.312,0,0,0-10.263,1.883,25.192,25.192,0,0,0-9.509,4.519,13.341,13.341,0,0,0-2.919,3.2,19.127,19.127,0,0,0-2.259,4.519,17.092,17.092,0,0,0-.942,4.99,8.96,8.96,0,0,0,.848,4.425q1.5,0,6.025-.471t10.357-1.224q-5.465,9.6-10.828,19.113a197.325,197.325,0,0,0-9.7,19.678q-1.7,3.954-3.39,8.191a80.162,80.162,0,0,0-2.918,8.756,45.445,45.445,0,0,0-1.507,9.039,27.917,27.917,0,0,0,.848,8.85,16.443,16.443,0,0,0,3.766,7.344,12.876,12.876,0,0,0,6.967,4.143,24.1,24.1,0,0,0,11.581.188,26.772,26.772,0,0,0,10.262-4.519,58.713,58.713,0,0,0,9.792-8.38,132.056,132.056,0,0,0,8.568-10.074,115.48,115.48,0,0,0,7.438-10.922q3.389-5.649,6.4-11.3-0.566-6.024-6.214-3.013a126.671,126.671,0,0,1-7.156,12.334,95.219,95.219,0,0,1-7.908,10.263,60.873,60.873,0,0,1-11.675,10.262q-5.465,3.488-8.662,2.919t-3.295-5.367q-0.1-4.8,4.425-14.782,2.259-4.893,4.331-8.944t2.824-5.555l16.006-32.2,4.331-9.039h0.377q1.129-.185,3.954-0.565t6.214-.753q3.39-.375,6.779-0.941t5.649-.942q2.445-.375,2.919-1.13t-0.094-3.578a12.489,12.489,0,0,0-3.484-6.5,15.258,15.258,0,0,0-6.5-3.86,42.664,42.664,0,0,0-6.779-1.13l2.259-4.519q1.13-2.26,1.883-4.049a6.658,6.658,0,0,0,0-4.425A7.189,7.189,0,0,0,959.369,28.6ZM1007.1,67.958a20.741,20.741,0,0,0-6.68-1.977,28.339,28.339,0,0,0-6.876-.094A31.968,31.968,0,0,0,981.4,69.464a48.9,48.9,0,0,0-10.451,7.344,60.67,60.67,0,0,0-8.474,10.168,65.282,65.282,0,0,0-9.98,25.139,52.507,52.507,0,0,0-.565,13.275,37.069,37.069,0,0,0,2.825,11.11,32.078,32.078,0,0,0,6.026,9.321,25.654,25.654,0,0,0,8.85,6.214,24.69,24.69,0,0,0,11.3,1.789,30.161,30.161,0,0,0,9.7-2.354,40.188,40.188,0,0,0,8.567-4.99,54.11,54.11,0,0,0,7.437-6.873q3.48-3.857,6.5-7.815,12.99-.939,21.94-7.249t14.97-17.8q-0.57-5.459-6.03-3.013-4.335,8.1-10.07,11.863a12.072,12.072,0,0,1-11.77,1.319,75.025,75.025,0,0,0,5.27-16.665,41.064,41.064,0,0,0-.19-17.042,27.4,27.4,0,0,0-4.71-9.6,14.377,14.377,0,0,0-8.85-5.649,11.685,11.685,0,0,0-6.02.377Zm-13.273,48.864a7.985,7.985,0,0,0-.094,6.873,10.315,10.315,0,0,0,3.3,4.049,18.371,18.371,0,0,0,4.8,2.542q-5.649,6.594-11.864,8.756t-10.921-.282a10.33,10.33,0,0,1-5.461-6.308,27.255,27.255,0,0,1-1.224-10.169,49.5,49.5,0,0,1,2.26-12.145A72.916,72.916,0,0,1,979.7,97.8a56.376,56.376,0,0,1,7.25-10.733,30.215,30.215,0,0,1,8.85-7.25,25.618,25.618,0,0,1,5.836-2.26,21.5,21.5,0,0,1,6.4-.565,27.783,27.783,0,0,1,4.43,3.86,13.169,13.169,0,0,1,2.73,5.178,37.864,37.864,0,0,1,1.03,10.922,44.962,44.962,0,0,1-1.78,10.545,7.245,7.245,0,0,0-2.26-2.071,7.424,7.424,0,0,0-6.69.188,28.2,28.2,0,0,0-6.872,4.52A20.249,20.249,0,0,0,993.827,116.822Zm183.4,3.955a44.425,44.425,0,0,1-13.46,11.769q-7.9,4.334-11.21,2.353-3.285-1.977-1.22-7.814a108.206,108.206,0,0,1,6.87-15.912q4.05-7.626,8.01-15.346l8.09-15.253q0.945-1.695,1.89-3.578a15.638,15.638,0,0,0,1.32-3.766q0.375-1.315-2.45-4.143A26.716,26.716,0,0,0,1167.35,64a15.672,15.672,0,0,0-9.42-1.506q-4.71.755-12.05,5.837a122.128,122.128,0,0,0-25.8,23.915l4.52-9.227a48.217,48.217,0,0,1,2.45-4.613,14.345,14.345,0,0,0,1.88-4.613,4.577,4.577,0,0,0-1.22-3.2,20.556,20.556,0,0,0-3.67-3.672,23.676,23.676,0,0,0-4.99-3.013,15.716,15.716,0,0,0-5.18-1.412,11.164,11.164,0,0,0-4.99.753,26.948,26.948,0,0,0-4.43,2.26,46.558,46.558,0,0,0-3.86,2.73,35.364,35.364,0,0,0-2.92,2.542,97.318,97.318,0,0,0-7.72,7.344q-4.515,4.709-9.22,9.886t-9.04,10.168q-4.335,4.992-6.97,8.192,1.695-3.011,4.33-7.344t5.56-8.944q2.91-4.612,5.83-9.227t4.99-8.379q1.89-3.389.76-5.461t-5.46-5.461q-4.335-3.2-7.91-1.977a9.2,9.2,0,0,0-5.27,4.237l-11.49,18.83q-4.14,6.594-8.57,14.311T1039.3,112.3q-3.765,7.626-6.59,14.5a56.205,56.205,0,0,0-3.58,11.393,6.2,6.2,0,0,0,1.41,4.707,19.411,19.411,0,0,0,4.43,4.331,15.485,15.485,0,0,0,5.37,2.542,4.96,4.96,0,0,0,4.42-.659,22.536,22.536,0,0,0,3.01-3.389q1.89-2.445,3.86-5.084t3.68-5.084c1.13-1.63,1.94-2.76,2.44-3.39q3.96-5.459,8.01-10.733t8.38-10.545q6.585-8.285,13.84-16.288t14.97-15.158q-6.78,13.183-12.53,24.856t-10.82,22.973c-0.26.753-.66,1.789-1.23,3.107s-1.13,2.669-1.69,4.049-1.07,2.668-1.51,3.86-0.72,2.042-.85,2.542a5.861,5.861,0,0,0,1.04,4.519,11.334,11.334,0,0,0,3.58,3.107,27.643,27.643,0,0,0,4.61,2.072,19.286,19.286,0,0,0,4.33,1.035,4.46,4.46,0,0,0,3.11-1.694,41.1,41.1,0,0,0,3.86-5.085q2.265-3.388,5.27-8.285t7.35-11.11q4.89-7.154,9.98-13.84t10.73-13.275q4.515-5.27,10.64-11.11T1150.4,77q-3.765,7.534-8,14.593a111.162,111.162,0,0,0-7.44,14.782q-1.89,4.334-3.67,9.321a57.134,57.134,0,0,0-2.64,10.262,37.767,37.767,0,0,0-.28,10.263,16.954,16.954,0,0,0,3.76,8.944,15.042,15.042,0,0,0,8.29,6.12,19.516,19.516,0,0,0,9.51.094,33.418,33.418,0,0,0,9.41-3.86,51.654,51.654,0,0,0,8.2-5.932,104.858,104.858,0,0,0,14.68-16.006,144.126,144.126,0,0,0,11.87-18.83c-0.26-1.883-.95-2.948-2.08-3.2a8.648,8.648,0,0,0-3.95.188A118.609,118.609,0,0,1,1177.23,120.777Zm67.23-74.1a22.321,22.321,0,0,0-6.88,1.036,24.842,24.842,0,0,0-5.83,2.73,15.278,15.278,0,0,0-4.15,3.766,29.382,29.382,0,0,0-2.82,4.519q-3.39,4.519-7.25,9.792t-8,10.733q-4.155,5.464-8.29,10.922t-7.91,10.545a28.552,28.552,0,0,0-21.56,9.416,32.239,32.239,0,0,0-4.89,7.061,28.553,28.553,0,0,0-2.73,8.1,24.657,24.657,0,0,0,0,8.568q1.695,10.168,8.37,14.593a28.956,28.956,0,0,0,15.35,4.708,49.125,49.125,0,0,0,17.51-2.73,45.273,45.273,0,0,0,14.69-7.909,54.435,54.435,0,0,0,11.11-12.617,41.311,41.311,0,0,0,8.85-.564,30.6,30.6,0,0,0,8.48-2.825,26.53,26.53,0,0,0,10.63-8.568,115.6,115.6,0,0,0,7.25-11.2q-0.945-5.27-6.02-3.013a28.042,28.042,0,0,1-3.86,5.744,25.56,25.56,0,0,1-5.37,4.707,22.143,22.143,0,0,1-6.68,2.919,15.656,15.656,0,0,1-7.63,0,98.49,98.49,0,0,0,3.39-15.347q1.125-8,2.07-15.817t1.98-15.064a71.571,71.571,0,0,1,3.11-13.275,36.682,36.682,0,0,1,4.51-9.415A19.931,19.931,0,0,0,1244.46,46.679Zm-47.08,93.116a20.191,20.191,0,0,1-9.6,2.448,13.185,13.185,0,0,1-8.1-2.824q-3.48-2.729-4.24-8.191a11.25,11.25,0,0,1,.47-5.179,14.207,14.207,0,0,1,2.36-4.425,11.3,11.3,0,0,1,5.08-3.3,15.569,15.569,0,0,1,5.93-.565,23.326,23.326,0,0,1,6.12,1.412q3.015,1.129,5.46,2.26a63.715,63.715,0,0,0,9.23,3.954,29.438,29.438,0,0,1-3.95,6.779A25.142,25.142,0,0,1,1197.38,139.795Zm21.09-47.17a100.592,100.592,0,0,1-1.98,14.5l-7.15-3.2q-3.765-1.316-7.35-2.26,4.53-5.835,9.14-11.957t8.75-11.581Q1218.935,85.285,1218.47,92.625ZM1259.9,105.9a2.562,2.562,0,0,0,1.22,1.6,15.35,15.35,0,0,1,5.84,7.909,34.475,34.475,0,0,1,1.79,12.052,63.611,63.611,0,0,1-2.08,14.593,79.9,79.9,0,0,1-5.74,15.535,41.236,41.236,0,0,1-15.16,16.947,68.235,68.235,0,0,1-20.62,8.38,110.135,110.135,0,0,1-22.88,2.73q-11.76.186-21.74,0-17.9-.379-42.18-1.6t-52.64-2.919q-28.335-1.695-59.59-3.578t-63.179-3.483q-31.917-1.6-63.364-2.637T839.508,170.4q-28.62,0-53.29,1.224a391.245,391.245,0,0,0-43.121,4.236,126.293,126.293,0,0,0-17.606,4.426,100.517,100.517,0,0,0-19.113,8.473,85.485,85.485,0,0,0-17.418,13.181,59.658,59.658,0,0,0-12.711,18.172,66.622,66.622,0,0,0-2.542,6.873q-0.657,2.352.283,2.918t3.672-.282q2.731-.848,7.814-2.542,19.587-6.779,49.806-11.392t68.26-7.344q38.038-2.732,82.477-3.86t92.551-.942q48.12,0.186,98.48,1.506,50.385,1.316,100.09,3.2a183.7,183.7,0,0,0,29.18-1.13,89.235,89.235,0,0,0,25.42-6.873,67.989,67.989,0,0,0,20.91-14.5q9.225-9.321,15.62-24.2a97.694,97.694,0,0,0,5.56-16.1,76.219,76.219,0,0,0,2.26-15.346,52.063,52.063,0,0,0-1.13-13.558,26.286,26.286,0,0,0-4.8-10.545c-1.89-2.51-3.83-3.766-5.84-3.766s-3.33.5-3.95,1.506A2.592,2.592,0,0,0,1259.9,105.9Z"/>
</svg>
